# MagicaVoxel @ Ephtracy

# group
o 

# material
mtllib Target Dummy.mtl
usemtl palette

# normals
vn -1 0 0
vn 1 0 0
vn 0 0 1
vn 0 0 -1
vn 0 -1 0
vn 0 1 0

# texcoords
vt 0.0371094 0.5
vt 0.0449219 0.5
vt 0.845703 0.5
vt 0.876953 0.5

# verts
v -1.7 2.2 0
v -1.7 2.2 -0.3
v -1.7 2.3 0.1
v -1.7 2.3 0
v -1.7 2.3 -0.3
v -1.7 2.3 -0.4
v -1.7 2.4 0.2
v -1.7 2.4 0.1
v -1.7 2.4 -0.4
v -1.7 2.4 -0.5
v -1.7 2.7 0.2
v -1.7 2.7 0.1
v -1.7 2.7 -0.4
v -1.7 2.7 -0.5
v -1.7 2.8 0.1
v -1.7 2.8 0
v -1.7 2.8 -0.3
v -1.7 2.8 -0.4
v -1.7 2.9 0
v -1.7 2.9 -0.3
v -0.7 0 0.1
v -0.7 0 -0.4
v -0.7 1.4 0.1
v -0.7 1.4 0
v -0.7 1.9 0.1
v -0.7 1.9 0
v -0.7 2.2 0
v -0.7 2.2 -0.3
v -0.7 2.3 0.1
v -0.7 2.3 0
v -0.7 2.3 -0.3
v -0.7 2.3 -0.4
v -0.6 0 0.2
v -0.6 0 0.1
v -0.6 0 -0.4
v -0.6 0 -0.5
v -0.6 1.3 0.2
v -0.6 1.3 0.1
v -0.6 1.4 0.2
v -0.6 1.4 0.1
v -0.6 1.9 0.2
v -0.6 1.9 0.1
v -0.6 2 0.2
v -0.6 2 0.1
v -0.6 2.6 0.2
v -0.6 2.6 0.1
v -0.6 2.6 -0.4
v -0.6 2.6 -0.5
v -0.5 0 0.3
v -0.5 0 0.2
v -0.5 0 -0.5
v -0.5 0 -0.6
v -0.5 1.2 0.3
v -0.5 1.2 0.2
v -0.5 1.3 0.3
v -0.5 1.3 0.2
v -0.5 1.4 0.2
v -0.5 1.9 0.2
v -0.5 2 0.3
v -0.5 2 0.2
v -0.5 2.1 0.3
v -0.5 2.1 0.2
v -0.5 2.6 0.3
v -0.5 2.6 0.2
v -0.5 2.6 -0.5
v -0.5 2.6 -0.6
v -0.5 3.4 0.3
v -0.5 3.4 -0.6
v -0.4 0 0.4
v -0.4 0 0.3
v -0.4 0 -0.6
v -0.4 0 -0.7
v -0.4 1.1 0.4
v -0.4 1.1 0.3
v -0.4 1.2 0.4
v -0.4 1.2 0.3
v -0.4 1.3 0.3
v -0.4 1.5 0.4
v -0.4 1.5 0.3
v -0.4 1.8 0.4
v -0.4 1.8 0.3
v -0.4 2 0.3
v -0.4 2.1 0.4
v -0.4 2.1 0.3
v -0.4 2.2 0.4
v -0.4 2.2 0.3
v -0.4 2.6 0.4
v -0.4 2.6 0.3
v -0.4 2.6 -0.6
v -0.4 2.6 -0.7
v 0.4 2.4 0.2
v 0.4 2.4 0.1
v 0.4 2.4 -0.4
v 0.4 2.4 -0.5
v 0.4 2.6 0.1
v 0.4 2.6 -0.4
v 0.4 2.7 0.2
v 0.4 2.7 0.1
v 0.4 2.7 -0.4
v 0.4 2.7 -0.5
v 0.4 2.8 0.1
v 0.4 2.8 0
v 0.4 2.8 -0.3
v 0.4 2.8 -0.4
v 0.4 2.9 0
v 0.4 2.9 -0.3
v -0.7 2.4 0.2
v -0.7 2.4 0.1
v -0.7 2.4 -0.4
v -0.7 2.4 -0.5
v -0.7 2.6 0.1
v -0.7 2.6 -0.4
v -0.7 2.7 0.2
v -0.7 2.7 0.1
v -0.7 2.7 -0.4
v -0.7 2.7 -0.5
v -0.7 2.8 0.1
v -0.7 2.8 0
v -0.7 2.8 -0.3
v -0.7 2.8 -0.4
v -0.7 2.9 0
v -0.7 2.9 -0.3
v 0.1 0 0.4
v 0.1 0 0.3
v 0.1 0 -0.6
v 0.1 0 -0.7
v 0.1 1.1 0.4
v 0.1 1.1 0.3
v 0.1 1.2 0.4
v 0.1 1.2 0.3
v 0.1 1.3 0.3
v 0.1 1.5 0.4
v 0.1 1.5 0.3
v 0.1 1.8 0.4
v 0.1 1.8 0.3
v 0.1 2 0.3
v 0.1 2.1 0.4
v 0.1 2.1 0.3
v 0.1 2.2 0.4
v 0.1 2.2 0.3
v 0.1 2.6 0.4
v 0.1 2.6 0.3
v 0.1 2.6 -0.6
v 0.1 2.6 -0.7
v 0.2 0 0.3
v 0.2 0 0.2
v 0.2 0 -0.5
v 0.2 0 -0.6
v 0.2 1.2 0.3
v 0.2 1.2 0.2
v 0.2 1.3 0.3
v 0.2 1.3 0.2
v 0.2 1.4 0.2
v 0.2 1.9 0.2
v 0.2 2 0.3
v 0.2 2 0.2
v 0.2 2.1 0.3
v 0.2 2.1 0.2
v 0.2 2.6 0.3
v 0.2 2.6 0.2
v 0.2 2.6 -0.5
v 0.2 2.6 -0.6
v 0.2 3.4 0.3
v 0.2 3.4 -0.6
v 0.3 0 0.2
v 0.3 0 0.1
v 0.3 0 -0.4
v 0.3 0 -0.5
v 0.3 1.3 0.2
v 0.3 1.3 0.1
v 0.3 1.4 0.2
v 0.3 1.4 0.1
v 0.3 1.9 0.2
v 0.3 1.9 0.1
v 0.3 2 0.2
v 0.3 2 0.1
v 0.3 2.6 0.2
v 0.3 2.6 0.1
v 0.3 2.6 -0.4
v 0.3 2.6 -0.5
v 0.4 0 0.1
v 0.4 0 -0.4
v 0.4 1.4 0.1
v 0.4 1.4 0
v 0.4 1.9 0.1
v 0.4 1.9 0
v 0.4 2.2 0
v 0.4 2.2 -0.3
v 0.4 2.3 0.1
v 0.4 2.3 0
v 0.4 2.3 -0.3
v 0.4 2.3 -0.4
v 1.4 2.2 0
v 1.4 2.2 -0.3
v 1.4 2.3 0.1
v 1.4 2.3 0
v 1.4 2.3 -0.3
v 1.4 2.3 -0.4
v 1.4 2.4 0.2
v 1.4 2.4 0.1
v 1.4 2.4 -0.4
v 1.4 2.4 -0.5
v 1.4 2.7 0.2
v 1.4 2.7 0.1
v 1.4 2.7 -0.4
v 1.4 2.7 -0.5
v 1.4 2.8 0.1
v 1.4 2.8 0
v 1.4 2.8 -0.3
v 1.4 2.8 -0.4
v 1.4 2.9 0
v 1.4 2.9 -0.3
v -0.4 0 0.4
v -0.4 1.1 0.4
v -0.4 1.2 0.4
v -0.4 1.5 0.4
v -0.4 1.8 0.4
v -0.4 2.1 0.4
v -0.4 2.2 0.4
v -0.4 2.6 0.4
v -0.3 1.4 0.4
v -0.3 1.5 0.4
v -0.3 1.8 0.4
v -0.3 1.9 0.4
v -0.2 1.6 0.4
v -0.2 1.7 0.4
v -0.0999999 1.6 0.4
v -0.0999999 1.7 0.4
v 1.19209e-007 1.4 0.4
v 1.19209e-007 1.5 0.4
v 1.19209e-007 1.8 0.4
v 1.19209e-007 1.9 0.4
v 0.1 0 0.4
v 0.1 1.1 0.4
v 0.1 1.2 0.4
v 0.1 1.5 0.4
v 0.1 1.8 0.4
v 0.1 2.1 0.4
v 0.1 2.2 0.4
v 0.1 2.6 0.4
v -0.5 0 0.3
v -0.5 1.2 0.3
v -0.5 1.3 0.3
v -0.5 2 0.3
v -0.5 2.1 0.3
v -0.5 2.6 0.3
v -0.5 3.4 0.3
v -0.4 0 0.3
v -0.4 1.1 0.3
v -0.4 1.2 0.3
v -0.4 1.3 0.3
v -0.4 1.5 0.3
v -0.4 1.8 0.3
v -0.4 2 0.3
v -0.4 2.1 0.3
v -0.4 2.2 0.3
v -0.4 2.6 0.3
v -0.4 2.8 0.3
v -0.4 2.9 0.3
v -0.4 3.2 0.3
v -0.4 3.3 0.3
v -0.3 2.7 0.3
v -0.3 2.8 0.3
v -0.3 2.9 0.3
v -0.3 3.2 0.3
v -0.3 3.3 0.3
v 1.19209e-007 2.7 0.3
v 1.19209e-007 2.8 0.3
v 1.19209e-007 2.9 0.3
v 1.19209e-007 3.2 0.3
v 1.19209e-007 3.3 0.3
v 0.1 0 0.3
v 0.1 1.1 0.3
v 0.1 1.2 0.3
v 0.1 1.3 0.3
v 0.1 1.5 0.3
v 0.1 1.8 0.3
v 0.1 2 0.3
v 0.1 2.1 0.3
v 0.1 2.2 0.3
v 0.1 2.6 0.3
v 0.1 2.8 0.3
v 0.1 2.9 0.3
v 0.1 3.2 0.3
v 0.1 3.3 0.3
v 0.2 0 0.3
v 0.2 1.2 0.3
v 0.2 1.3 0.3
v 0.2 2 0.3
v 0.2 2.1 0.3
v 0.2 2.6 0.3
v 0.2 3.4 0.3
v -1.7 2.4 0.2
v -1.7 2.7 0.2
v -0.7 2.4 0.2
v -0.7 2.7 0.2
v -0.6 0 0.2
v -0.6 1.3 0.2
v -0.6 1.4 0.2
v -0.6 1.9 0.2
v -0.6 2 0.2
v -0.6 2.6 0.2
v -0.5 0 0.2
v -0.5 1.2 0.2
v -0.5 1.3 0.2
v -0.5 1.4 0.2
v -0.5 1.9 0.2
v -0.5 2 0.2
v -0.5 2.1 0.2
v -0.5 2.6 0.2
v 0.2 0 0.2
v 0.2 1.2 0.2
v 0.2 1.3 0.2
v 0.2 1.4 0.2
v 0.2 1.9 0.2
v 0.2 2 0.2
v 0.2 2.1 0.2
v 0.2 2.6 0.2
v 0.3 0 0.2
v 0.3 1.3 0.2
v 0.3 1.4 0.2
v 0.3 1.9 0.2
v 0.3 2 0.2
v 0.3 2.6 0.2
v 0.4 2.4 0.2
v 0.4 2.7 0.2
v 1.4 2.4 0.2
v 1.4 2.7 0.2
v -1.7 2.3 0.1
v -1.7 2.4 0.1
v -1.7 2.7 0.1
v -1.7 2.8 0.1
v -0.7 0 0.1
v -0.7 1.4 0.1
v -0.7 1.9 0.1
v -0.7 2.3 0.1
v -0.7 2.4 0.1
v -0.7 2.6 0.1
v -0.7 2.7 0.1
v -0.7 2.8 0.1
v -0.6 0 0.1
v -0.6 1.3 0.1
v -0.6 1.4 0.1
v -0.6 1.9 0.1
v -0.6 2 0.1
v -0.6 2.6 0.1
v 0.3 0 0.1
v 0.3 1.3 0.1
v 0.3 1.4 0.1
v 0.3 1.9 0.1
v 0.3 2 0.1
v 0.3 2.6 0.1
v 0.4 0 0.1
v 0.4 1.4 0.1
v 0.4 1.9 0.1
v 0.4 2.3 0.1
v 0.4 2.4 0.1
v 0.4 2.6 0.1
v 0.4 2.7 0.1
v 0.4 2.8 0.1
v 1.4 2.3 0.1
v 1.4 2.4 0.1
v 1.4 2.7 0.1
v 1.4 2.8 0.1
v -1.7 2.2 0
v -1.7 2.3 0
v -1.7 2.8 0
v -1.7 2.9 0
v -0.7 2.2 0
v -0.7 2.3 0
v -0.7 2.8 0
v -0.7 2.9 0
v 0.4 2.2 0
v 0.4 2.3 0
v 0.4 2.8 0
v 0.4 2.9 0
v 1.4 2.2 0
v 1.4 2.3 0
v 1.4 2.8 0
v 1.4 2.9 0
v -1.7 2.2 -0.3
v -1.7 2.3 -0.3
v -1.7 2.8 -0.3
v -1.7 2.9 -0.3
v -0.7 2.2 -0.3
v -0.7 2.3 -0.3
v -0.7 2.8 -0.3
v -0.7 2.9 -0.3
v 0.4 2.2 -0.3
v 0.4 2.3 -0.3
v 0.4 2.8 -0.3
v 0.4 2.9 -0.3
v 1.4 2.2 -0.3
v 1.4 2.3 -0.3
v 1.4 2.8 -0.3
v 1.4 2.9 -0.3
v -1.7 2.3 -0.4
v -1.7 2.4 -0.4
v -1.7 2.7 -0.4
v -1.7 2.8 -0.4
v -0.7 0 -0.4
v -0.7 2.3 -0.4
v -0.7 2.4 -0.4
v -0.7 2.6 -0.4
v -0.7 2.7 -0.4
v -0.7 2.8 -0.4
v -0.6 0 -0.4
v -0.6 2.6 -0.4
v 0.3 0 -0.4
v 0.3 2.6 -0.4
v 0.4 0 -0.4
v 0.4 2.3 -0.4
v 0.4 2.4 -0.4
v 0.4 2.6 -0.4
v 0.4 2.7 -0.4
v 0.4 2.8 -0.4
v 1.4 2.3 -0.4
v 1.4 2.4 -0.4
v 1.4 2.7 -0.4
v 1.4 2.8 -0.4
v -1.7 2.4 -0.5
v -1.7 2.7 -0.5
v -0.7 2.4 -0.5
v -0.7 2.7 -0.5
v -0.6 0 -0.5
v -0.6 2.6 -0.5
v -0.5 0 -0.5
v -0.5 2.6 -0.5
v 0.2 0 -0.5
v 0.2 2.6 -0.5
v 0.3 0 -0.5
v 0.3 2.6 -0.5
v 0.4 2.4 -0.5
v 0.4 2.7 -0.5
v 1.4 2.4 -0.5
v 1.4 2.7 -0.5
v -0.5 0 -0.6
v -0.5 2.6 -0.6
v -0.5 3.4 -0.6
v -0.4 0 -0.6
v -0.4 2.6 -0.6
v 0.1 0 -0.6
v 0.1 2.6 -0.6
v 0.2 0 -0.6
v 0.2 2.6 -0.6
v 0.2 3.4 -0.6
v -0.4 0 -0.7
v -0.4 2.6 -0.7
v 0.1 0 -0.7
v 0.1 2.6 -0.7
v -0.4 0 0.4
v 0.1 0 0.4
v -0.5 0 0.3
v -0.4 0 0.3
v 0.1 0 0.3
v 0.2 0 0.3
v -0.6 0 0.2
v -0.5 0 0.2
v 0.2 0 0.2
v 0.3 0 0.2
v -0.7 0 0.1
v -0.6 0 0.1
v 0.3 0 0.1
v 0.4 0 0.1
v -0.7 0 -0.4
v -0.6 0 -0.4
v 0.3 0 -0.4
v 0.4 0 -0.4
v -0.6 0 -0.5
v -0.5 0 -0.5
v 0.2 0 -0.5
v 0.3 0 -0.5
v -0.5 0 -0.6
v -0.4 0 -0.6
v 0.1 0 -0.6
v 0.2 0 -0.6
v -0.4 0 -0.7
v 0.1 0 -0.7
v -1.7 2.2 0
v -0.7 2.2 0
v 0.4 2.2 0
v 1.4 2.2 0
v -1.7 2.2 -0.3
v -0.7 2.2 -0.3
v 0.4 2.2 -0.3
v 1.4 2.2 -0.3
v -1.7 2.3 0.1
v -0.7 2.3 0.1
v 0.4 2.3 0.1
v 1.4 2.3 0.1
v -1.7 2.3 0
v -0.7 2.3 0
v 0.4 2.3 0
v 1.4 2.3 0
v -1.7 2.3 -0.3
v -0.7 2.3 -0.3
v 0.4 2.3 -0.3
v 1.4 2.3 -0.3
v -1.7 2.3 -0.4
v -0.7 2.3 -0.4
v 0.4 2.3 -0.4
v 1.4 2.3 -0.4
v -1.7 2.4 0.2
v -0.7 2.4 0.2
v 0.4 2.4 0.2
v 1.4 2.4 0.2
v -1.7 2.4 0.1
v -0.7 2.4 0.1
v 0.4 2.4 0.1
v 1.4 2.4 0.1
v -1.7 2.4 -0.4
v -0.7 2.4 -0.4
v 0.4 2.4 -0.4
v 1.4 2.4 -0.4
v -1.7 2.4 -0.5
v -0.7 2.4 -0.5
v 0.4 2.4 -0.5
v 1.4 2.4 -0.5
v -0.4 2.6 0.4
v 0.1 2.6 0.4
v -0.4 2.6 0.3
v 0.1 2.6 0.3
v -0.6 2.6 0.2
v -0.5 2.6 0.2
v 0.2 2.6 0.2
v 0.3 2.6 0.2
v -0.7 2.6 0.1
v -0.6 2.6 0.1
v 0.3 2.6 0.1
v 0.4 2.6 0.1
v -0.7 2.6 -0.4
v -0.6 2.6 -0.4
v 0.3 2.6 -0.4
v 0.4 2.6 -0.4
v -0.6 2.6 -0.5
v -0.5 2.6 -0.5
v 0.2 2.6 -0.5
v 0.3 2.6 -0.5
v -0.4 2.6 -0.6
v 0.1 2.6 -0.6
v -0.4 2.6 -0.7
v 0.1 2.6 -0.7
v -1.7 2.7 0.2
v -0.7 2.7 0.2
v 0.4 2.7 0.2
v 1.4 2.7 0.2
v -1.7 2.7 0.1
v -0.7 2.7 0.1
v 0.4 2.7 0.1
v 1.4 2.7 0.1
v -1.7 2.7 -0.4
v -0.7 2.7 -0.4
v 0.4 2.7 -0.4
v 1.4 2.7 -0.4
v -1.7 2.7 -0.5
v -0.7 2.7 -0.5
v 0.4 2.7 -0.5
v 1.4 2.7 -0.5
v -1.7 2.8 0.1
v -0.7 2.8 0.1
v 0.4 2.8 0.1
v 1.4 2.8 0.1
v -1.7 2.8 0
v -0.7 2.8 0
v 0.4 2.8 0
v 1.4 2.8 0
v -1.7 2.8 -0.3
v -0.7 2.8 -0.3
v 0.4 2.8 -0.3
v 1.4 2.8 -0.3
v -1.7 2.8 -0.4
v -0.7 2.8 -0.4
v 0.4 2.8 -0.4
v 1.4 2.8 -0.4
v -1.7 2.9 0
v -0.7 2.9 0
v 0.4 2.9 0
v 1.4 2.9 0
v -1.7 2.9 -0.3
v -0.7 2.9 -0.3
v 0.4 2.9 -0.3
v 1.4 2.9 -0.3
v -0.5 3.4 0.3
v 0.2 3.4 0.3
v -0.5 3.4 -0.6
v 0.2 3.4 -0.6

# faces
f 4/1/1 2/1/1 1/1/1
f 5/1/1 2/1/1 4/1/1
f 8/1/1 4/1/1 3/1/1
f 8/1/1 6/1/1 5/1/1
f 8/1/1 5/1/1 4/1/1
f 9/1/1 6/1/1 8/1/1
f 11/1/1 8/1/1 7/1/1
f 11/1/1 10/1/1 9/1/1
f 11/1/1 9/1/1 8/1/1
f 12/1/1 10/1/1 11/1/1
f 13/1/1 10/1/1 12/1/1
f 14/1/1 10/1/1 13/1/1
f 15/1/1 13/1/1 12/1/1
f 16/1/1 13/1/1 15/1/1
f 17/1/1 13/1/1 16/1/1
f 18/1/1 13/1/1 17/1/1
f 19/1/1 17/1/1 16/1/1
f 20/1/1 17/1/1 19/1/1
f 23/1/1 22/1/1 21/1/1
f 24/1/1 22/1/1 23/1/1
f 25/3/1 24/3/1 23/3/1
f 26/1/1 22/1/1 24/1/1
f 26/3/1 24/3/1 25/3/1
f 27/1/1 26/1/1 25/1/1
f 27/1/1 22/1/1 26/1/1
f 28/1/1 22/1/1 27/1/1
f 29/1/1 27/1/1 25/1/1
f 30/1/1 27/1/1 29/1/1
f 31/1/1 22/1/1 28/1/1
f 32/1/1 22/1/1 31/1/1
f 37/1/1 34/1/1 33/1/1
f 38/1/1 34/1/1 37/1/1
f 39/3/1 38/3/1 37/3/1
f 40/3/1 38/3/1 39/3/1
f 41/1/1 40/1/1 39/1/1
f 42/1/1 40/1/1 41/1/1
f 43/3/1 42/3/1 41/3/1
f 44/3/1 42/3/1 43/3/1
f 45/1/1 44/1/1 43/1/1
f 46/1/1 44/1/1 45/1/1
f 47/1/1 36/1/1 35/1/1
f 48/1/1 36/1/1 47/1/1
f 53/1/1 50/1/1 49/1/1
f 54/1/1 50/1/1 53/1/1
f 55/3/1 54/3/1 53/3/1
f 56/3/1 54/3/1 55/3/1
f 57/1/1 56/1/1 55/1/1
f 58/1/1 57/1/1 55/1/1
f 59/1/1 58/1/1 55/1/1
f 60/1/1 58/1/1 59/1/1
f 61/3/1 60/3/1 59/3/1
f 62/3/1 60/3/1 61/3/1
f 63/1/1 62/1/1 61/1/1
f 64/1/1 62/1/1 63/1/1
f 65/1/1 52/1/1 51/1/1
f 66/1/1 52/1/1 65/1/1
f 67/2/1 64/2/1 63/2/1
f 67/2/1 65/2/1 64/2/1
f 67/2/1 66/2/1 65/2/1
f 68/2/1 66/2/1 67/2/1
f 73/1/1 70/1/1 69/1/1
f 74/1/1 70/1/1 73/1/1
f 75/3/1 74/3/1 73/3/1
f 76/3/1 74/3/1 75/3/1
f 77/1/1 76/1/1 75/1/1
f 78/1/1 77/1/1 75/1/1
f 79/1/1 77/1/1 78/1/1
f 80/3/1 79/3/1 78/3/1
f 81/3/1 79/3/1 80/3/1
f 82/1/1 81/1/1 80/1/1
f 83/1/1 82/1/1 80/1/1
f 84/1/1 82/1/1 83/1/1
f 85/3/1 84/3/1 83/3/1
f 86/3/1 84/3/1 85/3/1
f 87/1/1 86/1/1 85/1/1
f 88/1/1 86/1/1 87/1/1
f 89/1/1 72/1/1 71/1/1
f 90/1/1 72/1/1 89/1/1
f 95/1/1 92/1/1 91/1/1
f 96/1/1 94/1/1 93/1/1
f 97/1/1 95/1/1 91/1/1
f 97/1/1 96/1/1 95/1/1
f 98/1/1 96/1/1 97/1/1
f 99/1/1 94/1/1 96/1/1
f 99/1/1 96/1/1 98/1/1
f 100/1/1 94/1/1 99/1/1
f 101/1/1 99/1/1 98/1/1
f 102/1/1 99/1/1 101/1/1
f 103/1/1 99/1/1 102/1/1
f 104/1/1 99/1/1 103/1/1
f 105/1/1 103/1/1 102/1/1
f 106/1/1 103/1/1 105/1/1
f 107/1/2 108/1/2 111/1/2
f 109/1/2 110/1/2 112/1/2
f 107/1/2 111/1/2 113/1/2
f 111/1/2 112/1/2 113/1/2
f 113/1/2 112/1/2 114/1/2
f 112/1/2 110/1/2 115/1/2
f 114/1/2 112/1/2 115/1/2
f 115/1/2 110/1/2 116/1/2
f 114/1/2 115/1/2 117/1/2
f 117/1/2 115/1/2 118/1/2
f 118/1/2 115/1/2 119/1/2
f 119/1/2 115/1/2 120/1/2
f 118/1/2 119/1/2 121/1/2
f 121/1/2 119/1/2 122/1/2
f 123/1/2 124/1/2 127/1/2
f 127/1/2 124/1/2 128/1/2
f 127/3/2 128/3/2 129/3/2
f 129/3/2 128/3/2 130/3/2
f 129/1/2 130/1/2 131/1/2
f 129/1/2 131/1/2 132/1/2
f 132/1/2 131/1/2 133/1/2
f 132/3/2 133/3/2 134/3/2
f 134/3/2 133/3/2 135/3/2
f 134/1/2 135/1/2 136/1/2
f 134/1/2 136/1/2 137/1/2
f 137/1/2 136/1/2 138/1/2
f 137/3/2 138/3/2 139/3/2
f 139/3/2 138/3/2 140/3/2
f 139/1/2 140/1/2 141/1/2
f 141/1/2 140/1/2 142/1/2
f 125/1/2 126/1/2 143/1/2
f 143/1/2 126/1/2 144/1/2
f 145/1/2 146/1/2 149/1/2
f 149/1/2 146/1/2 150/1/2
f 149/3/2 150/3/2 151/3/2
f 151/3/2 150/3/2 152/3/2
f 151/1/2 152/1/2 153/1/2
f 151/1/2 153/1/2 154/1/2
f 151/1/2 154/1/2 155/1/2
f 155/1/2 154/1/2 156/1/2
f 155/3/2 156/3/2 157/3/2
f 157/3/2 156/3/2 158/3/2
f 157/1/2 158/1/2 159/1/2
f 159/1/2 158/1/2 160/1/2
f 147/1/2 148/1/2 161/1/2
f 161/1/2 148/1/2 162/1/2
f 159/2/2 160/2/2 163/2/2
f 160/2/2 161/2/2 163/2/2
f 161/2/2 162/2/2 163/2/2
f 163/2/2 162/2/2 164/2/2
f 165/1/2 166/1/2 169/1/2
f 169/1/2 166/1/2 170/1/2
f 169/3/2 170/3/2 171/3/2
f 171/3/2 170/3/2 172/3/2
f 171/1/2 172/1/2 173/1/2
f 173/1/2 172/1/2 174/1/2
f 173/3/2 174/3/2 175/3/2
f 175/3/2 174/3/2 176/3/2
f 175/1/2 176/1/2 177/1/2
f 177/1/2 176/1/2 178/1/2
f 167/1/2 168/1/2 179/1/2
f 179/1/2 168/1/2 180/1/2
f 181/1/2 182/1/2 183/1/2
f 183/1/2 182/1/2 184/1/2
f 183/3/2 184/3/2 185/3/2
f 184/1/2 182/1/2 186/1/2
f 185/3/2 184/3/2 186/3/2
f 185/1/2 186/1/2 187/1/2
f 186/1/2 182/1/2 187/1/2
f 187/1/2 182/1/2 188/1/2
f 185/1/2 187/1/2 189/1/2
f 189/1/2 187/1/2 190/1/2
f 188/1/2 182/1/2 191/1/2
f 191/1/2 182/1/2 192/1/2
f 193/1/2 194/1/2 196/1/2
f 196/1/2 194/1/2 197/1/2
f 195/1/2 196/1/2 200/1/2
f 197/1/2 198/1/2 200/1/2
f 196/1/2 197/1/2 200/1/2
f 200/1/2 198/1/2 201/1/2
f 199/1/2 200/1/2 203/1/2
f 201/1/2 202/1/2 203/1/2
f 200/1/2 201/1/2 203/1/2
f 203/1/2 202/1/2 204/1/2
f 204/1/2 202/1/2 205/1/2
f 205/1/2 202/1/2 206/1/2
f 204/1/2 205/1/2 207/1/2
f 207/1/2 205/1/2 208/1/2
f 208/1/2 205/1/2 209/1/2
f 209/1/2 205/1/2 210/1/2
f 208/1/2 209/1/2 211/1/2
f 211/1/2 209/1/2 212/1/2
f 221/1/3 216/1/3 215/1/3
f 222/3/3 217/3/3 216/3/3
f 222/1/3 216/1/3 221/1/3
f 223/1/3 218/1/3 217/1/3
f 223/3/3 217/3/3 222/3/3
f 224/1/3 218/1/3 223/1/3
f 225/1/3 223/1/3 222/1/3
f 226/1/3 223/1/3 225/1/3
f 227/1/3 225/1/3 222/1/3
f 227/3/3 226/3/3 225/3/3
f 228/1/3 223/1/3 226/1/3
f 228/3/3 226/3/3 227/3/3
f 229/1/3 221/1/3 215/1/3
f 229/3/3 222/3/3 221/3/3
f 230/1/3 228/1/3 227/1/3
f 230/3/3 222/3/3 229/3/3
f 230/1/3 227/1/3 222/1/3
f 231/1/3 223/1/3 228/1/3
f 231/1/3 228/1/3 230/1/3
f 231/3/3 224/3/3 223/3/3
f 232/1/3 218/1/3 224/1/3
f 232/3/3 224/3/3 231/3/3
f 233/1/3 214/1/3 213/1/3
f 234/3/3 215/3/3 214/3/3
f 234/1/3 214/1/3 233/1/3
f 235/1/3 230/1/3 229/1/3
f 235/3/3 215/3/3 234/3/3
f 235/1/3 229/1/3 215/1/3
f 236/3/3 231/3/3 230/3/3
f 236/1/3 230/1/3 235/1/3
f 237/1/3 232/1/3 231/1/3
f 237/3/3 231/3/3 236/3/3
f 238/1/3 218/1/3 232/1/3
f 238/1/3 232/1/3 237/1/3
f 238/3/3 219/3/3 218/3/3
f 239/1/3 220/1/3 219/1/3
f 239/3/3 219/3/3 238/3/3
f 240/1/3 220/1/3 239/1/3
f 248/1/3 242/1/3 241/1/3
f 249/1/3 242/1/3 248/1/3
f 250/3/3 243/3/3 242/3/3
f 250/1/3 242/1/3 249/1/3
f 251/1/3 244/1/3 243/1/3
f 251/3/3 243/3/3 250/3/3
f 252/1/3 244/1/3 251/1/3
f 253/1/3 244/1/3 252/1/3
f 254/3/3 245/3/3 244/3/3
f 254/1/3 244/1/3 253/1/3
f 255/1/3 246/1/3 245/1/3
f 255/3/3 245/3/3 254/3/3
f 256/1/3 246/1/3 255/1/3
f 257/2/3 247/2/3 246/2/3
f 257/1/3 246/1/3 256/1/3
f 258/2/3 247/2/3 257/2/3
f 259/2/3 247/2/3 258/2/3
f 260/2/3 247/2/3 259/2/3
f 261/2/3 247/2/3 260/2/3
f 262/2/3 258/2/3 257/2/3
f 263/4/3 259/4/3 258/4/3
f 263/2/3 258/2/3 262/2/3
f 264/2/3 260/2/3 259/2/3
f 264/4/3 259/4/3 263/4/3
f 265/4/3 261/4/3 260/4/3
f 265/2/3 260/2/3 264/2/3
f 266/2/3 247/2/3 261/2/3
f 266/4/3 261/4/3 265/4/3
f 267/4/3 263/4/3 262/4/3
f 267/2/3 262/2/3 257/2/3
f 268/2/3 265/2/3 264/2/3
f 268/4/3 263/4/3 267/4/3
f 268/2/3 264/2/3 263/2/3
f 268/2/3 266/2/3 265/2/3
f 269/2/3 266/2/3 268/2/3
f 270/2/3 266/2/3 269/2/3
f 271/2/3 247/2/3 266/2/3
f 271/2/3 266/2/3 270/2/3
f 281/2/3 267/2/3 257/2/3
f 281/2/3 268/2/3 267/2/3
f 282/4/3 269/4/3 268/4/3
f 282/2/3 268/2/3 281/2/3
f 283/2/3 270/2/3 269/2/3
f 283/4/3 269/4/3 282/4/3
f 284/4/3 271/4/3 270/4/3
f 284/2/3 270/2/3 283/2/3
f 285/2/3 247/2/3 271/2/3
f 285/4/3 271/4/3 284/4/3
f 286/1/3 273/1/3 272/1/3
f 286/1/3 274/1/3 273/1/3
f 287/3/3 275/3/3 274/3/3
f 287/1/3 274/1/3 286/1/3
f 288/1/3 276/1/3 275/1/3
f 288/3/3 275/3/3 287/3/3
f 288/1/3 277/1/3 276/1/3
f 288/1/3 278/1/3 277/1/3
f 289/3/3 279/3/3 278/3/3
f 289/1/3 278/1/3 288/1/3
f 290/1/3 280/1/3 279/1/3
f 290/3/3 279/3/3 289/3/3
f 290/1/3 281/1/3 280/1/3
f 291/2/3 282/2/3 281/2/3
f 291/1/3 281/1/3 290/1/3
f 291/2/3 283/2/3 282/2/3
f 291/2/3 284/2/3 283/2/3
f 291/2/3 285/2/3 284/2/3
f 292/2/3 247/2/3 285/2/3
f 292/2/3 285/2/3 291/2/3
f 295/1/3 294/1/3 293/1/3
f 296/1/3 294/1/3 295/1/3
f 303/1/3 298/1/3 297/1/3
f 304/1/3 298/1/3 303/1/3
f 305/3/3 299/3/3 298/3/3
f 305/1/3 298/1/3 304/1/3
f 306/1/3 300/1/3 299/1/3
f 306/3/3 299/3/3 305/3/3
f 307/3/3 301/3/3 300/3/3
f 307/1/3 300/1/3 306/1/3
f 308/1/3 302/1/3 301/1/3
f 308/3/3 301/3/3 307/3/3
f 309/1/3 302/1/3 308/1/3
f 310/1/3 302/1/3 309/1/3
f 319/1/3 312/1/3 311/1/3
f 319/1/3 313/1/3 312/1/3
f 320/3/3 314/3/3 313/3/3
f 320/1/3 313/1/3 319/1/3
f 321/1/3 315/1/3 314/1/3
f 321/3/3 314/3/3 320/3/3
f 322/3/3 316/3/3 315/3/3
f 322/1/3 315/1/3 321/1/3
f 323/1/3 318/1/3 317/1/3
f 323/3/3 316/3/3 322/3/3
f 323/1/3 317/1/3 316/1/3
f 324/1/3 318/1/3 323/1/3
f 327/1/3 326/1/3 325/1/3
f 328/1/3 326/1/3 327/1/3
f 336/1/3 330/1/3 329/1/3
f 337/1/3 330/1/3 336/1/3
f 339/1/3 332/1/3 331/1/3
f 340/1/3 332/1/3 339/1/3
f 341/1/3 334/1/3 333/1/3
f 342/1/3 334/1/3 341/1/3
f 343/3/3 335/3/3 334/3/3
f 343/1/3 334/1/3 342/1/3
f 344/1/3 338/1/3 337/1/3
f 344/3/3 335/3/3 343/3/3
f 344/1/3 336/1/3 335/1/3
f 344/1/3 337/1/3 336/1/3
f 345/1/3 338/1/3 344/1/3
f 346/1/3 338/1/3 345/1/3
f 353/1/3 348/1/3 347/1/3
f 353/1/3 349/1/3 348/1/3
f 354/3/3 350/3/3 349/3/3
f 354/1/3 349/1/3 353/1/3
f 355/1/3 352/1/3 351/1/3
f 355/3/3 350/3/3 354/3/3
f 355/1/3 351/1/3 350/1/3
f 356/1/3 352/1/3 355/1/3
f 357/1/3 352/1/3 356/1/3
f 358/1/3 352/1/3 357/1/3
f 361/1/3 357/1/3 356/1/3
f 362/1/3 357/1/3 361/1/3
f 363/1/3 360/1/3 359/1/3
f 364/1/3 360/1/3 363/1/3
f 369/1/3 366/1/3 365/1/3
f 370/1/3 366/1/3 369/1/3
f 371/1/3 368/1/3 367/1/3
f 372/1/3 368/1/3 371/1/3
f 377/1/3 374/1/3 373/1/3
f 378/1/3 374/1/3 377/1/3
f 379/1/3 376/1/3 375/1/3
f 380/1/3 376/1/3 379/1/3
f 381/1/4 382/1/4 385/1/4
f 385/1/4 382/1/4 386/1/4
f 383/1/4 384/1/4 387/1/4
f 387/1/4 384/1/4 388/1/4
f 389/1/4 390/1/4 393/1/4
f 393/1/4 390/1/4 394/1/4
f 391/1/4 392/1/4 395/1/4
f 395/1/4 392/1/4 396/1/4
f 397/1/4 398/1/4 402/1/4
f 402/1/4 398/1/4 403/1/4
f 399/1/4 400/1/4 405/1/4
f 405/1/4 400/1/4 406/1/4
f 403/1/4 404/1/4 407/1/4
f 401/1/4 402/1/4 407/1/4
f 402/1/4 403/1/4 407/1/4
f 407/1/4 404/1/4 408/1/4
f 409/1/4 410/1/4 411/1/4
f 411/1/4 410/1/4 412/1/4
f 412/1/4 410/1/4 413/1/4
f 413/1/4 410/1/4 414/1/4
f 412/1/4 413/1/4 417/1/4
f 417/1/4 413/1/4 418/1/4
f 415/1/4 416/1/4 419/1/4
f 419/1/4 416/1/4 420/1/4
f 421/1/4 422/1/4 423/1/4
f 423/1/4 422/1/4 424/1/4
f 425/1/4 426/1/4 427/1/4
f 427/1/4 426/1/4 428/1/4
f 429/1/4 430/1/4 431/1/4
f 431/1/4 430/1/4 432/1/4
f 433/1/4 434/1/4 435/1/4
f 435/1/4 434/1/4 436/1/4
f 437/1/4 438/1/4 440/1/4
f 438/2/4 439/2/4 441/2/4
f 440/1/4 438/1/4 441/1/4
f 441/2/4 439/2/4 443/2/4
f 442/1/4 443/1/4 444/1/4
f 443/2/4 439/2/4 445/2/4
f 444/1/4 443/1/4 445/1/4
f 445/2/4 439/2/4 446/2/4
f 447/1/4 448/1/4 449/1/4
f 449/1/4 448/1/4 450/1/4
f 454/1/5 452/1/5 451/1/5
f 455/1/5 452/1/5 454/1/5
f 458/1/5 454/1/5 453/1/5
f 458/1/5 456/1/5 455/1/5
f 458/1/5 455/1/5 454/1/5
f 459/1/5 456/1/5 458/1/5
f 462/1/5 458/1/5 457/1/5
f 462/1/5 460/1/5 459/1/5
f 462/1/5 459/1/5 458/1/5
f 463/1/5 460/1/5 462/1/5
f 465/1/5 462/1/5 461/1/5
f 465/1/5 464/1/5 463/1/5
f 465/1/5 463/1/5 462/1/5
f 466/1/5 464/1/5 465/1/5
f 467/1/5 464/1/5 466/1/5
f 468/1/5 464/1/5 467/1/5
f 469/1/5 467/1/5 466/1/5
f 470/1/5 467/1/5 469/1/5
f 471/1/5 467/1/5 470/1/5
f 472/1/5 467/1/5 471/1/5
f 473/1/5 471/1/5 470/1/5
f 474/1/5 471/1/5 473/1/5
f 475/1/5 471/1/5 474/1/5
f 476/1/5 471/1/5 475/1/5
f 477/1/5 475/1/5 474/1/5
f 478/1/5 475/1/5 477/1/5
f 483/1/5 480/1/5 479/1/5
f 484/1/5 480/1/5 483/1/5
f 485/1/5 482/1/5 481/1/5
f 486/1/5 482/1/5 485/1/5
f 491/1/5 488/1/5 487/1/5
f 492/1/5 488/1/5 491/1/5
f 493/1/5 490/1/5 489/1/5
f 494/1/5 490/1/5 493/1/5
f 499/1/5 496/1/5 495/1/5
f 500/1/5 496/1/5 499/1/5
f 501/1/5 498/1/5 497/1/5
f 502/1/5 498/1/5 501/1/5
f 507/1/5 504/1/5 503/1/5
f 508/1/5 504/1/5 507/1/5
f 509/1/5 506/1/5 505/1/5
f 510/1/5 506/1/5 509/1/5
f 515/1/5 512/1/5 511/1/5
f 516/1/5 512/1/5 515/1/5
f 517/1/5 514/1/5 513/1/5
f 518/1/5 514/1/5 517/1/5
f 519/1/6 520/1/6 521/1/6
f 521/1/6 520/1/6 522/1/6
f 523/1/6 524/1/6 528/1/6
f 525/1/6 526/1/6 529/1/6
f 527/1/6 528/1/6 531/1/6
f 528/1/6 524/1/6 532/1/6
f 531/1/6 528/1/6 532/1/6
f 529/1/6 530/1/6 533/1/6
f 525/1/6 529/1/6 533/1/6
f 533/1/6 530/1/6 534/1/6
f 532/1/6 524/1/6 535/1/6
f 535/1/6 524/1/6 536/1/6
f 525/1/6 533/1/6 537/1/6
f 537/1/6 533/1/6 538/1/6
f 539/1/6 540/1/6 541/1/6
f 541/1/6 540/1/6 542/1/6
f 543/1/6 544/1/6 547/1/6
f 547/1/6 544/1/6 548/1/6
f 545/1/6 546/1/6 549/1/6
f 549/1/6 546/1/6 550/1/6
f 551/1/6 552/1/6 555/1/6
f 555/1/6 552/1/6 556/1/6
f 553/1/6 554/1/6 557/1/6
f 557/1/6 554/1/6 558/1/6
f 559/1/6 560/1/6 563/1/6
f 563/1/6 560/1/6 564/1/6
f 561/1/6 562/1/6 565/1/6
f 565/1/6 562/1/6 566/1/6
f 567/1/6 568/1/6 571/1/6
f 571/1/6 568/1/6 572/1/6
f 569/1/6 570/1/6 573/1/6
f 573/1/6 570/1/6 574/1/6
f 575/1/6 576/1/6 579/1/6
f 579/1/6 576/1/6 580/1/6
f 577/1/6 578/1/6 581/1/6
f 581/1/6 578/1/6 582/1/6
f 583/2/6 584/2/6 585/2/6
f 585/2/6 584/2/6 586/2/6
