# MagicaVoxel @ Ephtracy

# group
o 

# material
mtllib basicFloorTile.mtl
usemtl palette

# normals
vn -1 0 0
vn 1 0 0
vn 0 0 1
vn 0 0 -1
vn 0 -1 0
vn 0 1 0

# texcoords
vt 0.0449219 0.5
vt 0.0644531 0.5
vt 0.994141 0.5

# verts
v -2 0 2
v -2 0 -2
v -2 0.1 2
v -2 0.1 -2
v -1.8 0.1 1.8
v -1.8 0.1 0.0999999
v -1.8 0.1 -0.1
v -1.8 0.1 -1.8
v -1.8 0.3 1.8
v -1.8 0.3 0.0999999
v -1.8 0.3 -0.1
v -1.8 0.3 -1.8
v 0.1 0.1 1.8
v 0.1 0.1 0.0999999
v 0.1 0.1 -0.1
v 0.1 0.1 -1.8
v 0.1 0.3 1.8
v 0.1 0.3 0.0999999
v 0.1 0.3 -0.1
v 0.1 0.3 -1.8
v -0.0999999 0.1 1.8
v -0.0999999 0.1 0.0999999
v -0.0999999 0.1 -0.1
v -0.0999999 0.1 -1.8
v -0.0999999 0.3 1.8
v -0.0999999 0.3 0.0999999
v -0.0999999 0.3 -0.1
v -0.0999999 0.3 -1.8
v 1.8 0.1 1.8
v 1.8 0.1 0.0999999
v 1.8 0.1 -0.1
v 1.8 0.1 -1.8
v 1.8 0.3 1.8
v 1.8 0.3 0.0999999
v 1.8 0.3 -0.1
v 1.8 0.3 -1.8
v 2 0 2
v 2 0 -2
v 2 0.1 2
v 2 0.1 -2
v -2 0 2
v -2 0.1 2
v 2 0 2
v 2 0.1 2
v -1.8 0.1 1.8
v -1.8 0.3 1.8
v -0.0999999 0.1 1.8
v -0.0999999 0.3 1.8
v 0.1 0.1 1.8
v 0.1 0.3 1.8
v 1.8 0.1 1.8
v 1.8 0.3 1.8
v -1.8 0.1 -0.1
v -1.8 0.3 -0.1
v -0.0999999 0.1 -0.1
v -0.0999999 0.3 -0.1
v 0.1 0.1 -0.1
v 0.1 0.3 -0.1
v 1.8 0.1 -0.1
v 1.8 0.3 -0.1
v -1.8 0.1 0.0999999
v -1.8 0.3 0.0999999
v -0.0999999 0.1 0.0999999
v -0.0999999 0.3 0.0999999
v 0.1 0.1 0.0999999
v 0.1 0.3 0.0999999
v 1.8 0.1 0.0999999
v 1.8 0.3 0.0999999
v -1.8 0.1 -1.8
v -1.8 0.3 -1.8
v -0.0999999 0.1 -1.8
v -0.0999999 0.3 -1.8
v 0.1 0.1 -1.8
v 0.1 0.3 -1.8
v 1.8 0.1 -1.8
v 1.8 0.3 -1.8
v -2 0 -2
v -2 0.1 -2
v 2 0 -2
v 2 0.1 -2
v -2 0 2
v 2 0 2
v -2 0 -2
v 2 0 -2
v -2 0.1 2
v 2 0.1 2
v -1.8 0.1 1.8
v -0.0999999 0.1 1.8
v 0.1 0.1 1.8
v 1.8 0.1 1.8
v -1.8 0.1 0.0999999
v -0.0999999 0.1 0.0999999
v 0.1 0.1 0.0999999
v 1.8 0.1 0.0999999
v -1.8 0.1 -0.1
v -0.0999999 0.1 -0.1
v 0.1 0.1 -0.1
v 1.8 0.1 -0.1
v -1.8 0.1 -1.8
v -0.0999999 0.1 -1.8
v 0.1 0.1 -1.8
v 1.8 0.1 -1.8
v -2 0.1 -2
v 2 0.1 -2
v -1.8 0.3 1.8
v -0.0999999 0.3 1.8
v 0.1 0.3 1.8
v 1.8 0.3 1.8
v -1.3 0.3 1.6
v -0.3 0.3 1.6
v 0.6 0.3 1.6
v 1.6 0.3 1.6
v -1.6 0.3 1.3
v -1.3 0.3 1.3
v 0.3 0.3 1.3
v 0.6 0.3 1.3
v -0.6 0.3 0.6
v -0.3 0.3 0.6
v 1.3 0.3 0.6
v 1.6 0.3 0.6
v -1.6 0.3 0.3
v -0.6 0.3 0.3
v 0.3 0.3 0.3
v 1.3 0.3 0.3
v -1.8 0.3 0.0999999
v -0.0999999 0.3 0.0999999
v 0.1 0.3 0.0999999
v 1.8 0.3 0.0999999
v -1.8 0.3 -0.1
v -0.0999999 0.3 -0.1
v 0.1 0.3 -0.1
v 1.8 0.3 -0.1
v -1.3 0.3 -0.3
v -0.3 0.3 -0.3
v 0.6 0.3 -0.3
v 1.6 0.3 -0.3
v -1.6 0.3 -0.6
v -1.3 0.3 -0.6
v 0.3 0.3 -0.6
v 0.6 0.3 -0.6
v -0.6 0.3 -1.3
v -0.3 0.3 -1.3
v 1.3 0.3 -1.3
v 1.6 0.3 -1.3
v -1.6 0.3 -1.6
v -0.6 0.3 -1.6
v 0.3 0.3 -1.6
v 1.3 0.3 -1.6
v -1.8 0.3 -1.8
v -0.0999999 0.3 -1.8
v 0.1 0.3 -1.8
v 1.8 0.3 -1.8

# faces
f 3/3/1 2/3/1 1/3/1
f 4/3/1 2/3/1 3/3/1
f 9/2/1 6/2/1 5/2/1
f 10/2/1 6/2/1 9/2/1
f 11/2/1 8/2/1 7/2/1
f 12/2/1 8/2/1 11/2/1
f 17/2/1 14/2/1 13/2/1
f 18/2/1 14/2/1 17/2/1
f 19/2/1 16/2/1 15/2/1
f 20/2/1 16/2/1 19/2/1
f 21/2/2 22/2/2 25/2/2
f 25/2/2 22/2/2 26/2/2
f 23/2/2 24/2/2 27/2/2
f 27/2/2 24/2/2 28/2/2
f 29/2/2 30/2/2 33/2/2
f 33/2/2 30/2/2 34/2/2
f 31/2/2 32/2/2 35/2/2
f 35/2/2 32/2/2 36/2/2
f 37/3/2 38/3/2 39/3/2
f 39/3/2 38/3/2 40/3/2
f 43/3/3 42/3/3 41/3/3
f 44/3/3 42/3/3 43/3/3
f 47/2/3 46/2/3 45/2/3
f 48/2/3 46/2/3 47/2/3
f 51/2/3 50/2/3 49/2/3
f 52/2/3 50/2/3 51/2/3
f 55/2/3 54/2/3 53/2/3
f 56/2/3 54/2/3 55/2/3
f 59/2/3 58/2/3 57/2/3
f 60/2/3 58/2/3 59/2/3
f 61/2/4 62/2/4 63/2/4
f 63/2/4 62/2/4 64/2/4
f 65/2/4 66/2/4 67/2/4
f 67/2/4 66/2/4 68/2/4
f 69/2/4 70/2/4 71/2/4
f 71/2/4 70/2/4 72/2/4
f 73/2/4 74/2/4 75/2/4
f 75/2/4 74/2/4 76/2/4
f 77/3/4 78/3/4 79/3/4
f 79/3/4 78/3/4 80/3/4
f 83/3/5 82/3/5 81/3/5
f 84/3/5 82/3/5 83/3/5
f 85/3/6 86/3/6 87/3/6
f 87/3/6 86/3/6 88/3/6
f 88/3/6 86/3/6 89/3/6
f 89/3/6 86/3/6 90/3/6
f 85/3/6 87/3/6 91/3/6
f 88/3/6 89/3/6 92/3/6
f 92/3/6 89/3/6 93/3/6
f 90/3/6 86/3/6 94/3/6
f 92/3/6 93/3/6 95/3/6
f 93/3/6 94/3/6 95/3/6
f 85/3/6 91/3/6 95/3/6
f 91/3/6 92/3/6 95/3/6
f 95/3/6 94/3/6 96/3/6
f 96/3/6 94/3/6 97/3/6
f 94/3/6 86/3/6 98/3/6
f 97/3/6 94/3/6 98/3/6
f 85/3/6 95/3/6 99/3/6
f 96/3/6 97/3/6 100/3/6
f 100/3/6 97/3/6 101/3/6
f 98/3/6 86/3/6 102/3/6
f 85/3/6 99/3/6 103/3/6
f 101/3/6 102/3/6 103/3/6
f 100/3/6 101/3/6 103/3/6
f 99/3/6 100/3/6 103/3/6
f 102/3/6 86/3/6 104/3/6
f 103/3/6 102/3/6 104/3/6
f 105/2/6 106/2/6 109/2/6
f 109/2/6 106/2/6 110/2/6
f 107/2/6 108/2/6 111/2/6
f 111/2/6 108/2/6 112/2/6
f 105/2/6 109/2/6 113/2/6
f 109/1/6 110/1/6 114/1/6
f 113/2/6 109/2/6 114/2/6
f 107/2/6 111/2/6 115/2/6
f 111/1/6 112/1/6 116/1/6
f 115/2/6 111/2/6 116/2/6
f 114/1/6 110/1/6 117/1/6
f 113/1/6 114/1/6 117/1/6
f 110/2/6 106/2/6 118/2/6
f 117/1/6 110/1/6 118/1/6
f 116/1/6 112/1/6 119/1/6
f 115/1/6 116/1/6 119/1/6
f 112/2/6 108/2/6 120/2/6
f 119/1/6 112/1/6 120/1/6
f 113/1/6 117/1/6 121/1/6
f 105/2/6 113/2/6 121/2/6
f 117/2/6 118/2/6 122/2/6
f 121/1/6 117/1/6 122/1/6
f 115/1/6 119/1/6 123/1/6
f 107/2/6 115/2/6 123/2/6
f 119/2/6 120/2/6 124/2/6
f 123/1/6 119/1/6 124/1/6
f 121/2/6 122/2/6 125/2/6
f 105/2/6 121/2/6 125/2/6
f 122/2/6 118/2/6 126/2/6
f 125/2/6 122/2/6 126/2/6
f 118/2/6 106/2/6 126/2/6
f 107/2/6 123/2/6 127/2/6
f 123/2/6 124/2/6 127/2/6
f 120/2/6 108/2/6 128/2/6
f 127/2/6 124/2/6 128/2/6
f 124/2/6 120/2/6 128/2/6
f 129/2/6 130/2/6 133/2/6
f 133/2/6 130/2/6 134/2/6
f 131/2/6 132/2/6 135/2/6
f 135/2/6 132/2/6 136/2/6
f 129/2/6 133/2/6 137/2/6
f 133/1/6 134/1/6 138/1/6
f 137/2/6 133/2/6 138/2/6
f 131/2/6 135/2/6 139/2/6
f 135/1/6 136/1/6 140/1/6
f 139/2/6 135/2/6 140/2/6
f 138/1/6 134/1/6 141/1/6
f 137/1/6 138/1/6 141/1/6
f 134/2/6 130/2/6 142/2/6
f 141/1/6 134/1/6 142/1/6
f 140/1/6 136/1/6 143/1/6
f 139/1/6 140/1/6 143/1/6
f 136/2/6 132/2/6 144/2/6
f 143/1/6 136/1/6 144/1/6
f 137/1/6 141/1/6 145/1/6
f 129/2/6 137/2/6 145/2/6
f 141/2/6 142/2/6 146/2/6
f 145/1/6 141/1/6 146/1/6
f 139/1/6 143/1/6 147/1/6
f 131/2/6 139/2/6 147/2/6
f 143/2/6 144/2/6 148/2/6
f 147/1/6 143/1/6 148/1/6
f 145/2/6 146/2/6 149/2/6
f 129/2/6 145/2/6 149/2/6
f 146/2/6 142/2/6 150/2/6
f 149/2/6 146/2/6 150/2/6
f 142/2/6 130/2/6 150/2/6
f 131/2/6 147/2/6 151/2/6
f 147/2/6 148/2/6 151/2/6
f 144/2/6 132/2/6 152/2/6
f 151/2/6 148/2/6 152/2/6
f 148/2/6 144/2/6 152/2/6
