# MagicaVoxel @ Ephtracy

# group
o 

# material
mtllib basicEdgeTile.mtl
usemtl palette

# normals
vn -1 0 0
vn 1 0 0
vn 0 0 1
vn 0 0 -1
vn 0 -1 0
vn 0 1 0

# texcoords
vt 0.0449219 0.5
vt 0.0644531 0.5
vt 0.283203 0.5
vt 0.287109 0.5
vt 0.291016 0.5
vt 0.294922 0.5
vt 0.298828 0.5
vt 0.994141 0.5

# verts
v -2 0 2
v -2 0 -2
v -2 0.1 2
v -2 0.1 -2
v -1.8 0.1 1.8
v -1.8 0.1 0.0999999
v -1.8 0.1 -0.1
v -1.8 0.1 -1.8
v -1.8 0.3 1.8
v -1.8 0.3 0.0999999
v -1.8 0.3 -0.1
v -1.8 0.3 -1.8
v 0.1 0.1 1.8
v 0.1 0.1 0.0999999
v 0.1 0.1 -0.1
v 0.1 0.1 -1.8
v 0.1 0.3 1.8
v 0.1 0.3 0.0999999
v 0.1 0.3 -0.1
v 0.1 0.3 -1.8
v -0.0999999 0.1 1.8
v -0.0999999 0.1 0.0999999
v -0.0999999 0.1 -0.1
v -0.0999999 0.1 -1.8
v -0.0999999 0.3 1.8
v -0.0999999 0.3 0.0999999
v -0.0999999 0.3 -0.1
v -0.0999999 0.3 -1.8
v 1.8 0.1 1.8
v 1.8 0.1 0.0999999
v 1.8 0.1 -0.1
v 1.8 0.1 -1.8
v 1.8 0.3 1.8
v 1.8 0.3 0.0999999
v 1.8 0.3 -0.1
v 1.8 0.3 -1.8
v 2 0 2
v 2 0 -2
v 2 0.1 2
v 2 0.1 -2
v -2 0 2
v -2 0.1 2
v 2.38419e-007 0 2
v 2.38419e-007 0.1 2
v 2 0 2
v 2 0.1 2
v -1.8 0.1 1.8
v -1.8 0.3 1.8
v -0.0999999 0.1 1.8
v -0.0999999 0.3 1.8
v 0.1 0.1 1.8
v 0.1 0.3 1.8
v 1.8 0.1 1.8
v 1.8 0.3 1.8
v -1.8 0.1 -0.1
v -1.8 0.3 -0.1
v -0.0999999 0.1 -0.1
v -0.0999999 0.3 -0.1
v 0.1 0.1 -0.1
v 0.1 0.3 -0.1
v 1.8 0.1 -0.1
v 1.8 0.3 -0.1
v -1.8 0.1 0.0999999
v -1.8 0.3 0.0999999
v -0.0999999 0.1 0.0999999
v -0.0999999 0.3 0.0999999
v 0.1 0.1 0.0999999
v 0.1 0.3 0.0999999
v 0.5 0.2 0.0999999
v 0.5 0.3 0.0999999
v 0.8 0.2 0.0999999
v 0.8 0.3 0.0999999
v 1.8 0.1 0.0999999
v 1.8 0.3 0.0999999
v -1.8 0.1 -1.8
v -1.8 0.3 -1.8
v -0.0999999 0.1 -1.8
v -0.0999999 0.3 -1.8
v 0.1 0.1 -1.8
v 0.1 0.3 -1.8
v 1.8 0.1 -1.8
v 1.8 0.3 -1.8
v -2 0 -2
v -2 0.1 -2
v 2.38419e-007 0 -2
v 2.38419e-007 0.1 -2
v 2 0 -2
v 2 0.1 -2
v -2 0 2
v 2.38419e-007 0 2
v 2 0 2
v 0.2 0 1.8
v 1.8 0 1.8
v 0.2 0 0.0999999
v 1.8 0 0.0999999
v 0.1 0 -0.1
v 1.8 0 -0.1
v 0.6 0 -0.3
v 1.6 0 -0.3
v 0.3 0 -0.6
v 0.6 0 -0.6
v 1.3 0 -1.3
v 1.6 0 -1.3
v 0.3 0 -1.6
v 1.3 0 -1.6
v 0.1 0 -1.8
v 1.8 0 -1.8
v -2 0 -2
v 2.38419e-007 0 -2
v 2 0 -2
v -2 0.1 2
v 2.38419e-007 0.1 2
v 2 0.1 2
v -1.8 0.1 1.8
v -0.0999999 0.1 1.8
v 0.1 0.1 1.8
v 1.8 0.1 1.8
v -1.8 0.1 0.0999999
v -0.0999999 0.1 0.0999999
v 0.1 0.1 0.0999999
v 1.8 0.1 0.0999999
v -1.8 0.1 -0.1
v -0.0999999 0.1 -0.1
v 0.1 0.1 -0.1
v 1.8 0.1 -0.1
v -1.8 0.1 -1.8
v -0.0999999 0.1 -1.8
v 0.1 0.1 -1.8
v 1.8 0.1 -1.8
v -2 0.1 -2
v 2.38419e-007 0.1 -2
v 2 0.1 -2
v -1.8 0.3 1.8
v -0.0999999 0.3 1.8
v 0.1 0.3 1.8
v 1.8 0.3 1.8
v -1.3 0.3 1.6
v -0.3 0.3 1.6
v 0.3 0.3 1.6
v 1.6 0.3 1.6
v 0.5 0.3 1.4
v 1.5 0.3 1.4
v -1.6 0.3 1.3
v -1.3 0.3 1.3
v 0.3 0.3 1
v 0.5 0.3 1
v 0.8 0.3 1
v 0.8 0.3 0.9
v 1 0.3 0.9
v 0.8 0.3 0.7
v 1 0.3 0.7
v -0.6 0.3 0.6
v -0.3 0.3 0.6
v 0.3 0.3 0.5
v 0.5 0.3 0.5
v 0.8 0.3 0.5
v 1.5 0.3 0.5
v -1.6 0.3 0.3
v -0.6 0.3 0.3
v 0.3 0.3 0.3
v 0.5 0.3 0.3
v 0.8 0.3 0.3
v 1.6 0.3 0.3
v -1.8 0.3 0.0999999
v -0.0999999 0.3 0.0999999
v 0.1 0.3 0.0999999
v 0.5 0.3 0.0999999
v 0.8 0.3 0.0999999
v 1.8 0.3 0.0999999
v -1.8 0.3 -0.1
v -0.0999999 0.3 -0.1
v 0.1 0.3 -0.1
v 1.8 0.3 -0.1
v -1.3 0.3 -0.3
v -0.3 0.3 -0.3
v 0.3 0.3 -0.3
v 0.5 0.3 -0.3
v 1.6 0.3 -0.3
v -1.6 0.3 -0.6
v -1.3 0.3 -0.6
v 0.5 0.3 -0.7
v 1 0.3 -0.7
v 1 0.3 -0.9
v 1.3 0.3 -0.9
v 1 0.3 -1.2
v 1.3 0.3 -1.2
v -0.6 0.3 -1.3
v -0.3 0.3 -1.3
v 0.5 0.3 -1.4
v 1 0.3 -1.4
v 1.6 0.3 -1.4
v -1.6 0.3 -1.6
v -0.6 0.3 -1.6
v 0.3 0.3 -1.6
v 1.6 0.3 -1.6
v -1.8 0.3 -1.8
v -0.0999999 0.3 -1.8
v 0.1 0.3 -1.8
v 1.8 0.3 -1.8

# faces
f 3/8/1 2/8/1 1/8/1
f 4/8/1 2/8/1 3/8/1
f 9/2/1 6/2/1 5/2/1
f 10/2/1 6/2/1 9/2/1
f 11/2/1 8/2/1 7/2/1
f 12/2/1 8/2/1 11/2/1
f 17/3/1 14/3/1 13/3/1
f 18/3/1 14/3/1 17/3/1
f 19/3/1 16/3/1 15/3/1
f 20/3/1 16/3/1 19/3/1
f 21/2/2 22/2/2 25/2/2
f 25/2/2 22/2/2 26/2/2
f 23/2/2 24/2/2 27/2/2
f 27/2/2 24/2/2 28/2/2
f 29/3/2 30/3/2 33/3/2
f 33/3/2 30/3/2 34/3/2
f 31/3/2 32/3/2 35/3/2
f 35/3/2 32/3/2 36/3/2
f 37/7/2 38/7/2 39/7/2
f 39/7/2 38/7/2 40/7/2
f 43/8/3 42/8/3 41/8/3
f 44/8/3 42/8/3 43/8/3
f 45/7/3 44/7/3 43/7/3
f 46/7/3 44/7/3 45/7/3
f 49/2/3 48/2/3 47/2/3
f 50/2/3 48/2/3 49/2/3
f 53/3/3 52/3/3 51/3/3
f 54/3/3 52/3/3 53/3/3
f 57/2/3 56/2/3 55/2/3
f 58/2/3 56/2/3 57/2/3
f 61/3/3 60/3/3 59/3/3
f 62/3/3 60/3/3 61/3/3
f 63/2/4 64/2/4 65/2/4
f 65/2/4 64/2/4 66/2/4
f 67/3/4 68/3/4 69/3/4
f 69/3/4 68/3/4 70/3/4
f 67/3/4 69/3/4 71/3/4
f 69/5/4 70/5/4 71/5/4
f 71/5/4 70/5/4 72/5/4
f 67/3/4 71/3/4 73/3/4
f 71/3/4 72/3/4 73/3/4
f 73/3/4 72/3/4 74/3/4
f 75/2/4 76/2/4 77/2/4
f 77/2/4 76/2/4 78/2/4
f 79/3/4 80/3/4 81/3/4
f 81/3/4 80/3/4 82/3/4
f 83/8/4 84/8/4 85/8/4
f 85/8/4 84/8/4 86/8/4
f 85/7/4 86/7/4 87/7/4
f 87/7/4 86/7/4 88/7/4
f 92/7/5 91/7/5 90/7/5
f 93/7/5 91/7/5 92/7/5
f 94/7/5 92/7/5 90/7/5
f 94/8/5 93/8/5 92/8/5
f 95/7/5 91/7/5 93/7/5
f 95/8/5 93/8/5 94/8/5
f 96/7/5 94/7/5 90/7/5
f 96/7/5 95/7/5 94/7/5
f 97/7/5 91/7/5 95/7/5
f 97/7/5 95/7/5 96/7/5
f 98/3/5 97/3/5 96/3/5
f 99/3/5 97/3/5 98/3/5
f 100/3/5 98/3/5 96/3/5
f 101/8/5 99/8/5 98/8/5
f 101/3/5 98/3/5 100/3/5
f 102/8/5 101/8/5 100/8/5
f 102/8/5 99/8/5 101/8/5
f 103/3/5 97/3/5 99/3/5
f 103/8/5 99/8/5 102/8/5
f 104/8/5 102/8/5 100/8/5
f 104/3/5 100/3/5 96/3/5
f 105/3/5 103/3/5 102/3/5
f 105/8/5 102/8/5 104/8/5
f 106/7/5 96/7/5 90/7/5
f 106/3/5 104/3/5 96/3/5
f 106/3/5 105/3/5 104/3/5
f 107/3/5 103/3/5 105/3/5
f 107/3/5 105/3/5 106/3/5
f 107/7/5 91/7/5 97/7/5
f 107/3/5 97/3/5 103/3/5
f 108/8/5 90/8/5 89/8/5
f 109/7/5 106/7/5 90/7/5
f 109/8/5 90/8/5 108/8/5
f 109/7/5 107/7/5 106/7/5
f 110/7/5 91/7/5 107/7/5
f 110/7/5 107/7/5 109/7/5
f 111/8/6 112/8/6 114/8/6
f 114/8/6 112/8/6 115/8/6
f 112/7/6 113/7/6 116/7/6
f 116/7/6 113/7/6 117/7/6
f 111/8/6 114/8/6 118/8/6
f 115/8/6 112/8/6 119/8/6
f 112/7/6 116/7/6 120/7/6
f 117/7/6 113/7/6 121/7/6
f 111/8/6 118/8/6 122/8/6
f 118/8/6 119/8/6 122/8/6
f 119/8/6 112/8/6 123/8/6
f 122/8/6 119/8/6 123/8/6
f 120/7/6 121/7/6 124/7/6
f 112/7/6 120/7/6 124/7/6
f 121/7/6 113/7/6 125/7/6
f 124/7/6 121/7/6 125/7/6
f 111/8/6 122/8/6 126/8/6
f 123/8/6 112/8/6 127/8/6
f 112/7/6 124/7/6 128/7/6
f 125/7/6 113/7/6 129/7/6
f 111/8/6 126/8/6 130/8/6
f 126/8/6 127/8/6 130/8/6
f 128/7/6 129/7/6 131/7/6
f 130/8/6 127/8/6 131/8/6
f 112/7/6 128/7/6 131/7/6
f 127/8/6 112/8/6 131/8/6
f 129/7/6 113/7/6 132/7/6
f 131/7/6 129/7/6 132/7/6
f 133/2/6 134/2/6 137/2/6
f 137/2/6 134/2/6 138/2/6
f 135/3/6 136/3/6 139/3/6
f 139/3/6 136/3/6 140/3/6
f 139/4/6 140/4/6 141/4/6
f 141/4/6 140/4/6 142/4/6
f 133/2/6 137/2/6 143/2/6
f 137/1/6 138/1/6 144/1/6
f 143/2/6 137/2/6 144/2/6
f 135/3/6 139/3/6 145/3/6
f 139/4/6 141/4/6 145/4/6
f 141/6/6 142/6/6 146/6/6
f 145/4/6 141/4/6 146/4/6
f 146/6/6 142/6/6 147/6/6
f 145/5/6 146/5/6 148/5/6
f 147/6/6 142/6/6 148/6/6
f 146/5/6 147/5/6 148/5/6
f 148/6/6 142/6/6 149/6/6
f 145/5/6 148/5/6 150/5/6
f 148/5/6 149/5/6 150/5/6
f 149/6/6 142/6/6 151/6/6
f 150/5/6 149/5/6 151/5/6
f 144/1/6 138/1/6 152/1/6
f 143/1/6 144/1/6 152/1/6
f 138/2/6 134/2/6 153/2/6
f 152/1/6 138/1/6 153/1/6
f 135/3/6 145/3/6 154/3/6
f 145/5/6 150/5/6 154/5/6
f 154/5/6 150/5/6 155/5/6
f 150/6/6 151/6/6 156/6/6
f 155/5/6 150/5/6 156/5/6
f 142/4/6 140/4/6 157/4/6
f 156/6/6 151/6/6 157/6/6
f 151/6/6 142/6/6 157/6/6
f 143/1/6 152/1/6 158/1/6
f 133/2/6 143/2/6 158/2/6
f 152/2/6 153/2/6 159/2/6
f 158/1/6 152/1/6 159/1/6
f 135/3/6 154/3/6 160/3/6
f 154/4/6 155/4/6 160/4/6
f 155/5/6 156/5/6 161/5/6
f 160/4/6 155/4/6 161/4/6
f 156/4/6 157/4/6 162/4/6
f 161/5/6 156/5/6 162/5/6
f 157/4/6 140/4/6 163/4/6
f 162/4/6 157/4/6 163/4/6
f 140/3/6 136/3/6 163/3/6
f 133/2/6 158/2/6 164/2/6
f 158/2/6 159/2/6 164/2/6
f 159/2/6 153/2/6 165/2/6
f 164/2/6 159/2/6 165/2/6
f 153/2/6 134/2/6 165/2/6
f 135/3/6 160/3/6 166/3/6
f 160/3/6 161/3/6 166/3/6
f 161/5/6 162/5/6 167/5/6
f 166/3/6 161/3/6 167/3/6
f 162/3/6 163/3/6 168/3/6
f 167/5/6 162/5/6 168/5/6
f 163/3/6 136/3/6 169/3/6
f 168/3/6 163/3/6 169/3/6
f 170/2/6 171/2/6 174/2/6
f 174/2/6 171/2/6 175/2/6
f 172/3/6 173/3/6 176/3/6
f 176/3/6 173/3/6 177/3/6
f 177/3/6 173/3/6 178/3/6
f 170/2/6 174/2/6 179/2/6
f 174/1/6 175/1/6 180/1/6
f 179/2/6 174/2/6 180/2/6
f 176/4/6 177/4/6 181/4/6
f 177/6/6 178/6/6 181/6/6
f 181/6/6 178/6/6 182/6/6
f 181/5/6 182/5/6 183/5/6
f 182/6/6 178/6/6 183/6/6
f 183/6/6 178/6/6 184/6/6
f 181/5/6 183/5/6 185/5/6
f 183/5/6 184/5/6 185/5/6
f 184/6/6 178/6/6 186/6/6
f 185/5/6 184/5/6 186/5/6
f 180/1/6 175/1/6 187/1/6
f 179/1/6 180/1/6 187/1/6
f 175/2/6 171/2/6 188/2/6
f 187/1/6 175/1/6 188/1/6
f 176/4/6 181/4/6 189/4/6
f 181/5/6 185/5/6 189/5/6
f 185/6/6 186/6/6 190/6/6
f 189/5/6 185/5/6 190/5/6
f 178/3/6 173/3/6 191/3/6
f 190/6/6 186/6/6 191/6/6
f 186/6/6 178/6/6 191/6/6
f 179/1/6 187/1/6 192/1/6
f 170/2/6 179/2/6 192/2/6
f 187/2/6 188/2/6 193/2/6
f 192/1/6 187/1/6 193/1/6
f 189/4/6 190/4/6 194/4/6
f 190/4/6 191/4/6 194/4/6
f 172/3/6 176/3/6 194/3/6
f 176/4/6 189/4/6 194/4/6
f 191/3/6 173/3/6 195/3/6
f 194/4/6 191/4/6 195/4/6
f 192/2/6 193/2/6 196/2/6
f 170/2/6 192/2/6 196/2/6
f 193/2/6 188/2/6 197/2/6
f 196/2/6 193/2/6 197/2/6
f 188/2/6 171/2/6 197/2/6
f 172/3/6 194/3/6 198/3/6
f 194/3/6 195/3/6 198/3/6
f 195/3/6 173/3/6 199/3/6
f 198/3/6 195/3/6 199/3/6
