# MagicaVoxel @ Ephtracy

# group
o 

# material
mtllib bigTile.mtl
usemtl palette

# normals
vn -1 0 0
vn 1 0 0
vn 0 0 1
vn 0 0 -1
vn 0 -1 0
vn 0 1 0

# texcoords
vt 0.0644531 0.5
vt 0.220703 0.5
vt 0.224609 0.5
vt 0.283203 0.5
vt 0.298828 0.5
vt 0.994141 0.5

# verts
v -4 0 4
v -4 0 -4
v -4 0.1 4
v -4 0.1 -4
v -3.8 0.1 3.8
v -3.8 0.1 2.1
v -3.8 0.1 1.9
v -3.8 0.1 0.2
v -3.8 0.1 -0.2
v -3.8 0.1 -1.9
v -3.8 0.1 -2.1
v -3.8 0.1 -3.8
v -3.8 0.2 3.8
v -3.8 0.2 2.1
v -3.8 0.2 1.9
v -3.8 0.2 0.2
v -3.8 0.2 -0.2
v -3.8 0.2 -1.9
v -3.8 0.2 -2.1
v -3.8 0.2 -3.8
v -3.8 0.3 3.8
v -3.8 0.3 -3.8
v 3.8 0.1 3.8
v 3.8 0.1 -3.8
v 3.8 0.2 3.8
v 3.8 0.2 -3.8
v 3.8 0.3 3.8
v 3.8 0.3 -3.8
v 4 0 4
v 4 0 -4
v 4 0.1 4
v 4 0.1 -4
v -4 0 4
v -4 0.1 4
v 4 0 4
v 4 0.1 4
v -3.8 0.1 3.8
v -3.8 0.2 3.8
v -3.8 0.3 3.8
v -2.1 0.1 3.8
v -2.1 0.2 3.8
v 0.2 0.1 3.8
v 0.2 0.2 3.8
v 1.9 0.1 3.8
v 1.9 0.2 3.8
v 3.8 0.1 3.8
v 3.8 0.2 3.8
v 3.8 0.3 3.8
v -3.8 0.1 -3.8
v -3.8 0.2 -3.8
v -3.8 0.3 -3.8
v -2.1 0.1 -3.8
v -2.1 0.2 -3.8
v 0.2 0.1 -3.8
v 0.2 0.2 -3.8
v 1.9 0.1 -3.8
v 1.9 0.2 -3.8
v 3.8 0.1 -3.8
v 3.8 0.2 -3.8
v 3.8 0.3 -3.8
v -4 0 -4
v -4 0.1 -4
v 4 0 -4
v 4 0.1 -4
v -4 0 4
v 4 0 4
v -1.9 0 3.8
v -1.8 0 3.8
v 2.1 0 3.8
v 2.2 0 3.8
v -1.9 0 2.1
v -1.8 0 2.1
v 2.1 0 2.1
v 2.2 0 2.1
v -1.9 0 1.9
v -0.2 0 1.9
v 2.1 0 1.9
v 3.8 0 1.9
v -1.4 0 1.7
v -0.4 0 1.7
v 2.6 0 1.7
v 3.6 0 1.7
v -1.7 0 1.4
v -1.4 0 1.4
v 2.3 0 1.4
v 2.6 0 1.4
v -0.7 0 0.7
v -0.4 0 0.7
v 3.3 0 0.7
v 3.6 0 0.7
v -1.7 0 0.4
v -0.7 0 0.4
v 2.3 0 0.4
v 3.3 0 0.4
v -1.9 0 0.2
v -0.2 0 0.2
v 2.1 0 0.2
v 3.8 0 0.2
v -1.9 0 -0.2
v -1.8 0 -0.2
v 2.1 0 -0.2
v 2.2 0 -0.2
v -1.9 0 -1.9
v -1.8 0 -1.9
v 2.1 0 -1.9
v 2.2 0 -1.9
v -1.9 0 -2.1
v -0.2 0 -2.1
v 2.1 0 -2.1
v 3.8 0 -2.1
v -1.4 0 -2.3
v -0.4 0 -2.3
v 2.6 0 -2.3
v 3.6 0 -2.3
v -1.7 0 -2.6
v -1.4 0 -2.6
v 2.3 0 -2.6
v 2.6 0 -2.6
v -0.7 0 -3.3
v -0.4 0 -3.3
v 3.3 0 -3.3
v 3.6 0 -3.3
v -1.7 0 -3.6
v -0.7 0 -3.6
v 2.3 0 -3.6
v 3.3 0 -3.6
v -1.9 0 -3.8
v -0.2 0 -3.8
v 2.1 0 -3.8
v 3.8 0 -3.8
v -4 0 -4
v 4 0 -4
v -4 0.1 4
v 4 0.1 4
v -3.8 0.1 3.8
v -2.1 0.1 3.8
v 0.2 0.1 3.8
v 1.9 0.1 3.8
v 3.8 0.1 3.8
v -3.8 0.1 2.1
v -3.8 0.1 1.9
v -3.8 0.1 0.2
v -3.8 0.1 -0.2
v -3.8 0.1 -1.9
v -3.8 0.1 -2.1
v -3.8 0.1 -3.8
v -2.1 0.1 -3.8
v 0.2 0.1 -3.8
v 1.9 0.1 -3.8
v 3.8 0.1 -3.8
v -4 0.1 -4
v 4 0.1 -4
v -3.8 0.3 3.8
v 3.8 0.3 3.8
v -3.6 0.3 3.6
v 3.6 0.3 3.6
v -3 0.3 3.2
v -2.8 0.3 3.2
v -3.2 0.3 2.9
v -3 0.3 2.9
v -2.8 0.3 2.9
v -2.6 0.3 2.9
v 2.3 0.3 2.9
v 2.5 0.3 2.9
v -3.2 0.3 2.7
v -3 0.3 2.7
v -2.8 0.3 2.7
v -2.6 0.3 2.7
v 2.3 0.3 2.7
v 2.5 0.3 2.7
v -3 0.3 2.5
v -2.8 0.3 2.5
v 1.6 0.3 1.5
v 1.8 0.3 1.5
v 1.6 0.3 1.3
v 1.8 0.3 1.3
v 2 0.3 1.3
v 1.8 0.3 1.1
v 2 0.3 1.1
v 2.2 0.3 1.1
v 2 0.3 0.9
v 2.2 0.3 0.9
v -3.6 0.3 -2
v -3.4 0.3 -2
v -3.6 0.3 -2.2
v -3.4 0.3 -2.2
v -3.6 0.3 -2.6
v -3.4 0.3 -2.6
v -2.9 0.3 -2.7
v -2.7 0.3 -2.7
v -3.6 0.3 -2.8
v -3.4 0.3 -2.8
v -3.2 0.3 -2.8
v -2.9 0.3 -2.9
v -2.7 0.3 -2.9
v -3.6 0.3 -3
v -3.4 0.3 -3
v -3.2 0.3 -3
v -3 0.3 -3
v -3.6 0.3 -3.2
v -3.4 0.3 -3.2
v -3.2 0.3 -3.2
v -3 0.3 -3.2
v -2.8 0.3 -3.2
v 0 0.3 -3.2
v 0.2 0.3 -3.2
v 1 0.3 -3.2
v 1.2 0.3 -3.2
v -3.6 0.3 -3.4
v -3.4 0.3 -3.4
v -3.2 0.3 -3.4
v -3 0.3 -3.4
v -2.8 0.3 -3.4
v -2.6 0.3 -3.4
v -2.4 0.3 -3.4
v -2.2 0.3 -3.4
v 0 0.3 -3.4
v 0.2 0.3 -3.4
v 0.4 0.3 -3.4
v 1 0.3 -3.4
v 1.2 0.3 -3.4
v 1.4 0.3 -3.4
v -3.4 0.3 -3.6
v -3.2 0.3 -3.6
v -3 0.3 -3.6
v -2.8 0.3 -3.6
v -2.6 0.3 -3.6
v -2.4 0.3 -3.6
v -2.2 0.3 -3.6
v 0.2 0.3 -3.6
v 0.4 0.3 -3.6
v 1.2 0.3 -3.6
v 1.4 0.3 -3.6
v 3.6 0.3 -3.6
v -3.8 0.3 -3.8
v 3.8 0.3 -3.8

# faces
f 3/6/1 2/6/1 1/6/1
f 4/6/1 2/6/1 3/6/1
f 13/1/1 6/1/1 5/1/1
f 14/4/1 7/4/1 6/4/1
f 14/1/1 6/1/1 13/1/1
f 15/1/1 8/1/1 7/1/1
f 15/4/1 7/4/1 14/4/1
f 16/4/1 9/4/1 8/4/1
f 16/1/1 8/1/1 15/1/1
f 17/1/1 10/1/1 9/1/1
f 17/4/1 9/4/1 16/4/1
f 18/4/1 11/4/1 10/4/1
f 18/1/1 10/1/1 17/1/1
f 19/1/1 12/1/1 11/1/1
f 19/4/1 11/4/1 18/4/1
f 20/1/1 12/1/1 19/1/1
f 21/3/1 18/3/1 17/3/1
f 21/3/1 14/3/1 13/3/1
f 21/3/1 20/3/1 19/3/1
f 21/3/1 19/3/1 18/3/1
f 21/3/1 17/3/1 16/3/1
f 21/3/1 16/3/1 15/3/1
f 21/3/1 15/3/1 14/3/1
f 22/3/1 20/3/1 21/3/1
f 23/4/2 24/4/2 25/4/2
f 25/4/2 24/4/2 26/4/2
f 25/3/2 26/3/2 27/3/2
f 27/3/2 26/3/2 28/3/2
f 29/6/2 30/6/2 31/6/2
f 31/6/2 30/6/2 32/6/2
f 35/6/3 34/6/3 33/6/3
f 36/6/3 34/6/3 35/6/3
f 40/1/3 38/1/3 37/1/3
f 41/3/3 39/3/3 38/3/3
f 41/1/3 38/1/3 40/1/3
f 42/4/3 41/4/3 40/4/3
f 43/3/3 39/3/3 41/3/3
f 43/4/3 41/4/3 42/4/3
f 44/1/3 43/1/3 42/1/3
f 45/3/3 39/3/3 43/3/3
f 45/1/3 43/1/3 44/1/3
f 46/4/3 45/4/3 44/4/3
f 47/3/3 39/3/3 45/3/3
f 47/4/3 45/4/3 46/4/3
f 48/3/3 39/3/3 47/3/3
f 49/1/4 50/1/4 52/1/4
f 50/3/4 51/3/4 53/3/4
f 52/1/4 50/1/4 53/1/4
f 52/4/4 53/4/4 54/4/4
f 53/3/4 51/3/4 55/3/4
f 54/4/4 53/4/4 55/4/4
f 54/1/4 55/1/4 56/1/4
f 55/3/4 51/3/4 57/3/4
f 56/1/4 55/1/4 57/1/4
f 56/4/4 57/4/4 58/4/4
f 57/3/4 51/3/4 59/3/4
f 58/4/4 57/4/4 59/4/4
f 59/3/4 51/3/4 60/3/4
f 61/6/4 62/6/4 63/6/4
f 63/6/4 62/6/4 64/6/4
f 67/6/5 66/6/5 65/6/5
f 68/6/5 66/6/5 67/6/5
f 69/6/5 66/6/5 68/6/5
f 70/6/5 66/6/5 69/6/5
f 71/6/5 67/6/5 65/6/5
f 71/5/5 68/5/5 67/5/5
f 72/6/5 69/6/5 68/6/5
f 72/5/5 68/5/5 71/5/5
f 73/5/5 70/5/5 69/5/5
f 73/6/5 69/6/5 72/6/5
f 74/6/5 66/6/5 70/6/5
f 74/5/5 70/5/5 73/5/5
f 75/6/5 73/6/5 72/6/5
f 75/6/5 72/6/5 71/6/5
f 75/6/5 74/6/5 73/6/5
f 75/6/5 71/6/5 65/6/5
f 76/6/5 74/6/5 75/6/5
f 77/6/5 74/6/5 76/6/5
f 78/6/5 66/6/5 74/6/5
f 78/6/5 74/6/5 77/6/5
f 79/4/5 76/4/5 75/4/5
f 80/4/5 76/4/5 79/4/5
f 81/4/5 78/4/5 77/4/5
f 82/4/5 78/4/5 81/4/5
f 83/4/5 79/4/5 75/4/5
f 84/6/5 80/6/5 79/6/5
f 84/4/5 79/4/5 83/4/5
f 85/4/5 81/4/5 77/4/5
f 86/6/5 82/6/5 81/6/5
f 86/4/5 81/4/5 85/4/5
f 87/6/5 80/6/5 84/6/5
f 87/6/5 84/6/5 83/6/5
f 88/4/5 76/4/5 80/4/5
f 88/6/5 80/6/5 87/6/5
f 89/6/5 82/6/5 86/6/5
f 89/6/5 86/6/5 85/6/5
f 90/4/5 78/4/5 82/4/5
f 90/6/5 82/6/5 89/6/5
f 91/6/5 87/6/5 83/6/5
f 91/4/5 83/4/5 75/4/5
f 92/4/5 88/4/5 87/4/5
f 92/6/5 87/6/5 91/6/5
f 93/6/5 89/6/5 85/6/5
f 93/4/5 85/4/5 77/4/5
f 94/4/5 90/4/5 89/4/5
f 94/6/5 89/6/5 93/6/5
f 95/6/5 75/6/5 65/6/5
f 95/4/5 92/4/5 91/4/5
f 95/4/5 91/4/5 75/4/5
f 96/6/5 77/6/5 76/6/5
f 96/4/5 92/4/5 95/4/5
f 96/4/5 88/4/5 92/4/5
f 96/4/5 76/4/5 88/4/5
f 97/4/5 94/4/5 93/4/5
f 97/6/5 77/6/5 96/6/5
f 97/4/5 93/4/5 77/4/5
f 98/4/5 90/4/5 94/4/5
f 98/4/5 94/4/5 97/4/5
f 98/6/5 66/6/5 78/6/5
f 98/4/5 78/4/5 90/4/5
f 99/6/5 95/6/5 65/6/5
f 99/6/5 97/6/5 96/6/5
f 99/6/5 98/6/5 97/6/5
f 99/6/5 96/6/5 95/6/5
f 100/6/5 98/6/5 99/6/5
f 101/6/5 98/6/5 100/6/5
f 102/6/5 98/6/5 101/6/5
f 103/6/5 99/6/5 65/6/5
f 103/5/5 100/5/5 99/5/5
f 104/6/5 101/6/5 100/6/5
f 104/5/5 100/5/5 103/5/5
f 105/5/5 102/5/5 101/5/5
f 105/6/5 101/6/5 104/6/5
f 106/6/5 98/6/5 102/6/5
f 106/5/5 102/5/5 105/5/5
f 107/6/5 105/6/5 104/6/5
f 107/6/5 104/6/5 103/6/5
f 107/6/5 106/6/5 105/6/5
f 107/6/5 103/6/5 65/6/5
f 108/6/5 106/6/5 107/6/5
f 109/6/5 106/6/5 108/6/5
f 110/6/5 66/6/5 98/6/5
f 110/6/5 106/6/5 109/6/5
f 110/6/5 98/6/5 106/6/5
f 111/4/5 108/4/5 107/4/5
f 112/4/5 108/4/5 111/4/5
f 113/4/5 110/4/5 109/4/5
f 114/4/5 110/4/5 113/4/5
f 115/4/5 111/4/5 107/4/5
f 116/6/5 112/6/5 111/6/5
f 116/4/5 111/4/5 115/4/5
f 117/4/5 113/4/5 109/4/5
f 118/6/5 114/6/5 113/6/5
f 118/4/5 113/4/5 117/4/5
f 119/6/5 112/6/5 116/6/5
f 119/6/5 116/6/5 115/6/5
f 120/4/5 108/4/5 112/4/5
f 120/6/5 112/6/5 119/6/5
f 121/6/5 114/6/5 118/6/5
f 121/6/5 118/6/5 117/6/5
f 122/4/5 110/4/5 114/4/5
f 122/6/5 114/6/5 121/6/5
f 123/6/5 119/6/5 115/6/5
f 123/4/5 115/4/5 107/4/5
f 124/4/5 120/4/5 119/4/5
f 124/6/5 119/6/5 123/6/5
f 125/6/5 121/6/5 117/6/5
f 125/4/5 117/4/5 109/4/5
f 126/4/5 122/4/5 121/4/5
f 126/6/5 121/6/5 125/6/5
f 127/6/5 107/6/5 65/6/5
f 127/4/5 124/4/5 123/4/5
f 127/4/5 123/4/5 107/4/5
f 128/6/5 109/6/5 108/6/5
f 128/4/5 124/4/5 127/4/5
f 128/4/5 120/4/5 124/4/5
f 128/4/5 108/4/5 120/4/5
f 129/4/5 126/4/5 125/4/5
f 129/6/5 109/6/5 128/6/5
f 129/4/5 125/4/5 109/4/5
f 130/6/5 66/6/5 110/6/5
f 130/4/5 126/4/5 129/4/5
f 130/4/5 122/4/5 126/4/5
f 130/4/5 110/4/5 122/4/5
f 131/6/5 127/6/5 65/6/5
f 131/6/5 129/6/5 128/6/5
f 131/6/5 130/6/5 129/6/5
f 131/6/5 128/6/5 127/6/5
f 132/6/5 66/6/5 130/6/5
f 132/6/5 130/6/5 131/6/5
f 133/6/6 134/6/6 135/6/6
f 135/6/6 134/6/6 136/6/6
f 136/6/6 134/6/6 137/6/6
f 137/6/6 134/6/6 138/6/6
f 138/6/6 134/6/6 139/6/6
f 133/6/6 135/6/6 140/6/6
f 133/6/6 140/6/6 141/6/6
f 133/6/6 141/6/6 142/6/6
f 133/6/6 142/6/6 143/6/6
f 133/6/6 143/6/6 144/6/6
f 133/6/6 144/6/6 145/6/6
f 133/6/6 145/6/6 146/6/6
f 139/6/6 134/6/6 150/6/6
f 148/6/6 149/6/6 151/6/6
f 149/6/6 150/6/6 151/6/6
f 133/6/6 146/6/6 151/6/6
f 146/6/6 147/6/6 151/6/6
f 147/6/6 148/6/6 151/6/6
f 150/6/6 134/6/6 152/6/6
f 151/6/6 150/6/6 152/6/6
f 153/3/6 154/3/6 155/3/6
f 155/3/6 154/3/6 156/3/6
f 155/2/6 156/2/6 157/2/6
f 157/2/6 156/2/6 158/2/6
f 155/2/6 157/2/6 159/2/6
f 157/3/6 158/3/6 160/3/6
f 159/2/6 157/2/6 160/2/6
f 158/2/6 156/2/6 161/2/6
f 160/3/6 158/3/6 161/3/6
f 161/2/6 156/2/6 162/2/6
f 162/2/6 156/2/6 163/2/6
f 163/2/6 156/2/6 164/2/6
f 159/3/6 160/3/6 165/3/6
f 155/2/6 159/2/6 165/2/6
f 160/2/6 161/2/6 166/2/6
f 165/3/6 160/3/6 166/3/6
f 161/3/6 162/3/6 167/3/6
f 166/2/6 161/2/6 167/2/6
f 162/2/6 163/2/6 168/2/6
f 167/3/6 162/3/6 168/3/6
f 163/3/6 164/3/6 169/3/6
f 168/2/6 163/2/6 169/2/6
f 164/2/6 156/2/6 170/2/6
f 169/3/6 164/3/6 170/3/6
f 165/2/6 166/2/6 171/2/6
f 166/3/6 167/3/6 171/3/6
f 168/2/6 169/2/6 172/2/6
f 171/3/6 167/3/6 172/3/6
f 167/2/6 168/2/6 172/2/6
f 169/2/6 170/2/6 172/2/6
f 171/2/6 172/2/6 173/2/6
f 172/2/6 170/2/6 173/2/6
f 173/2/6 170/2/6 174/2/6
f 171/2/6 173/2/6 175/2/6
f 173/3/6 174/3/6 175/3/6
f 174/2/6 170/2/6 176/2/6
f 175/3/6 174/3/6 176/3/6
f 176/2/6 170/2/6 177/2/6
f 175/2/6 176/2/6 178/2/6
f 176/3/6 177/3/6 178/3/6
f 177/2/6 170/2/6 179/2/6
f 178/3/6 177/3/6 179/3/6
f 179/2/6 170/2/6 180/2/6
f 178/2/6 179/2/6 181/2/6
f 179/3/6 180/3/6 181/3/6
f 180/2/6 170/2/6 182/2/6
f 181/3/6 180/3/6 182/3/6
f 153/3/6 155/3/6 183/3/6
f 165/2/6 171/2/6 183/2/6
f 181/2/6 182/2/6 183/2/6
f 178/2/6 181/2/6 183/2/6
f 175/2/6 178/2/6 183/2/6
f 171/2/6 175/2/6 183/2/6
f 155/2/6 165/2/6 183/2/6
f 183/2/6 182/2/6 184/2/6
f 153/3/6 183/3/6 185/3/6
f 183/3/6 184/3/6 185/3/6
f 184/2/6 182/2/6 186/2/6
f 185/3/6 184/3/6 186/3/6
f 153/3/6 185/3/6 187/3/6
f 185/2/6 186/2/6 187/2/6
f 186/2/6 182/2/6 188/2/6
f 187/2/6 186/2/6 188/2/6
f 188/2/6 182/2/6 189/2/6
f 189/2/6 182/2/6 190/2/6
f 153/3/6 187/3/6 191/3/6
f 187/3/6 188/3/6 191/3/6
f 188/2/6 189/2/6 192/2/6
f 191/3/6 188/3/6 192/3/6
f 192/2/6 189/2/6 193/2/6
f 189/3/6 190/3/6 194/3/6
f 193/2/6 189/2/6 194/2/6
f 190/2/6 182/2/6 195/2/6
f 194/3/6 190/3/6 195/3/6
f 153/3/6 191/3/6 196/3/6
f 191/2/6 192/2/6 196/2/6
f 192/3/6 193/3/6 197/3/6
f 196/2/6 192/2/6 197/2/6
f 193/2/6 194/2/6 198/2/6
f 197/3/6 193/3/6 198/3/6
f 194/2/6 195/2/6 198/2/6
f 198/2/6 195/2/6 199/2/6
f 196/3/6 197/3/6 200/3/6
f 153/3/6 196/3/6 200/3/6
f 197/2/6 198/2/6 201/2/6
f 200/3/6 197/3/6 201/3/6
f 198/3/6 199/3/6 202/3/6
f 201/2/6 198/2/6 202/2/6
f 199/2/6 195/2/6 203/2/6
f 202/3/6 199/3/6 203/3/6
f 203/2/6 195/2/6 204/2/6
f 195/2/6 182/2/6 205/2/6
f 204/2/6 195/2/6 205/2/6
f 205/2/6 182/2/6 206/2/6
f 206/2/6 182/2/6 207/2/6
f 207/2/6 182/2/6 208/2/6
f 200/2/6 201/2/6 209/2/6
f 153/3/6 200/3/6 209/3/6
f 201/3/6 202/3/6 210/3/6
f 209/2/6 201/2/6 210/2/6
f 202/2/6 203/2/6 211/2/6
f 210/3/6 202/3/6 211/3/6
f 203/3/6 204/3/6 212/3/6
f 211/2/6 203/2/6 212/2/6
f 204/2/6 205/2/6 213/2/6
f 212/3/6 204/3/6 213/3/6
f 213/2/6 205/2/6 214/2/6
f 214/2/6 205/2/6 215/2/6
f 215/2/6 205/2/6 216/2/6
f 205/3/6 206/3/6 217/3/6
f 216/2/6 205/2/6 217/2/6
f 206/2/6 207/2/6 218/2/6
f 217/3/6 206/3/6 218/3/6
f 218/2/6 207/2/6 219/2/6
f 207/3/6 208/3/6 220/3/6
f 219/2/6 207/2/6 220/2/6
f 208/2/6 182/2/6 221/2/6
f 220/3/6 208/3/6 221/3/6
f 221/2/6 182/2/6 222/2/6
f 210/2/6 211/2/6 223/2/6
f 209/3/6 210/3/6 223/3/6
f 211/3/6 212/3/6 224/3/6
f 223/2/6 211/2/6 224/2/6
f 212/2/6 213/2/6 225/2/6
f 224/3/6 212/3/6 225/3/6
f 213/3/6 214/3/6 226/3/6
f 225/2/6 213/2/6 226/2/6
f 214/2/6 215/2/6 227/2/6
f 226/3/6 214/3/6 227/3/6
f 215/3/6 216/3/6 228/3/6
f 227/2/6 215/2/6 228/2/6
f 216/2/6 217/2/6 229/2/6
f 228/3/6 216/3/6 229/3/6
f 217/2/6 218/2/6 229/2/6
f 218/3/6 219/3/6 230/3/6
f 229/2/6 218/2/6 230/2/6
f 219/2/6 220/2/6 231/2/6
f 230/3/6 219/3/6 231/3/6
f 220/2/6 221/2/6 231/2/6
f 221/3/6 222/3/6 232/3/6
f 231/2/6 221/2/6 232/2/6
f 222/2/6 182/2/6 233/2/6
f 232/3/6 222/3/6 233/3/6
f 182/2/6 170/2/6 234/2/6
f 233/2/6 182/2/6 234/2/6
f 156/3/6 154/3/6 234/3/6
f 170/2/6 156/2/6 234/2/6
f 232/3/6 233/3/6 235/3/6
f 225/3/6 226/3/6 235/3/6
f 233/3/6 234/3/6 235/3/6
f 223/3/6 224/3/6 235/3/6
f 227/3/6 228/3/6 235/3/6
f 226/3/6 227/3/6 235/3/6
f 209/3/6 223/3/6 235/3/6
f 230/3/6 231/3/6 235/3/6
f 228/3/6 229/3/6 235/3/6
f 231/3/6 232/3/6 235/3/6
f 229/3/6 230/3/6 235/3/6
f 153/3/6 209/3/6 235/3/6
f 224/3/6 225/3/6 235/3/6
f 234/3/6 154/3/6 236/3/6
f 235/3/6 234/3/6 236/3/6
