# MagicaVoxel @ Ephtracy

# group
o 

# material
mtllib floorTileAlternate.mtl
usemtl palette

# normals
vn -1 0 0
vn 1 0 0
vn 0 0 1
vn 0 0 -1
vn 0 -1 0
vn 0 1 0

# texcoords
vt 0.0644531 0.5
vt 0.220703 0.5
vt 0.224609 0.5
vt 0.994141 0.5

# verts
v -2 0 2
v -2 0 -2
v -2 0.1 2
v -2 0.1 -2
v -1.8 0.1 1.8
v -1.8 0.1 -1.8
v -1.8 0.3 1.8
v -1.8 0.3 -1.8
v 0.1 0.1 1.8
v 0.1 0.1 1.7
v 0.1 0.2 1.8
v 0.1 0.2 1.7
v -0.0999999 0.1 1.8
v -0.0999999 0.1 1.7
v -0.0999999 0.2 1.8
v -0.0999999 0.2 1.7
v 1.8 0.1 1.8
v 1.8 0.1 -1.8
v 1.8 0.3 1.8
v 1.8 0.3 -1.8
v 2 0 2
v 2 0 -2
v 2 0.1 2
v 2 0.1 -2
v -2 0 2
v -2 0.1 2
v 2 0 2
v 2 0.1 2
v -1.8 0.1 1.8
v -1.8 0.3 1.8
v -0.0999999 0.1 1.8
v -0.0999999 0.2 1.8
v 0.1 0.1 1.8
v 0.1 0.2 1.8
v 1.8 0.1 1.8
v 1.8 0.3 1.8
v -0.0999999 0.1 1.7
v -0.0999999 0.2 1.7
v 0.1 0.1 1.7
v 0.1 0.2 1.7
v -1.8 0.1 -1.8
v -1.8 0.3 -1.8
v 1.8 0.1 -1.8
v 1.8 0.3 -1.8
v -2 0 -2
v -2 0.1 -2
v 2 0 -2
v 2 0.1 -2
v -2 0 2
v 2 0 2
v -2 0 -2
v 2 0 -2
v -0.0999999 0.2 1.8
v 0.1 0.2 1.8
v -0.0999999 0.2 1.7
v 0.1 0.2 1.7
v -2 0.1 2
v 2 0.1 2
v -1.8 0.1 1.8
v -0.0999999 0.1 1.8
v 0.1 0.1 1.8
v 1.8 0.1 1.8
v -0.0999999 0.1 1.7
v 0.1 0.1 1.7
v -1.8 0.1 -1.8
v 1.8 0.1 -1.8
v -2 0.1 -2
v 2 0.1 -2
v -1.8 0.3 1.8
v 1.8 0.3 1.8
v -1.6 0.3 1.6
v 0.2 0.3 1.6
v 0.4 0.3 1.6
v 0.6 0.3 1.6
v 0.8 0.3 1.6
v 1 0.3 1.6
v 1.2 0.3 1.6
v 1.4 0.3 1.6
v 0.2 0.3 1.4
v 0.4 0.3 1.4
v 0.6 0.3 1.4
v 0.8 0.3 1.4
v 1 0.3 1.4
v 1.2 0.3 1.4
v 1.4 0.3 1.4
v 1.6 0.3 1.4
v 0.8 0.3 1.2
v 1 0.3 1.2
v 1.2 0.3 1.2
v 1.4 0.3 1.2
v 1.6 0.3 1.2
v 0.8 0.3 1
v 1 0.3 1
v 1.2 0.3 1
v 1.4 0.3 1
v 1.6 0.3 1
v 0.8 0.3 0.8
v 1 0.3 0.8
v 1.2 0.3 0.8
v 1.4 0.3 0.8
v 1.6 0.3 0.8
v 1.4 0.3 0.6
v 1.6 0.3 0.6
v 1.4 0.3 0.4
v 1.6 0.3 0.4
v 1.4 0.3 0.2
v 1.6 0.3 0.2
v -1.6 0.3 -1.6
v 1.6 0.3 -1.6
v -1.8 0.3 -1.8
v 1.8 0.3 -1.8

# faces
f 3/4/1 2/4/1 1/4/1
f 4/4/1 2/4/1 3/4/1
f 7/3/1 6/3/1 5/3/1
f 8/3/1 6/3/1 7/3/1
f 11/3/1 10/3/1 9/3/1
f 12/3/1 10/3/1 11/3/1
f 13/3/2 14/3/2 15/3/2
f 15/3/2 14/3/2 16/3/2
f 17/3/2 18/3/2 19/3/2
f 19/3/2 18/3/2 20/3/2
f 21/4/2 22/4/2 23/4/2
f 23/4/2 22/4/2 24/4/2
f 27/4/3 26/4/3 25/4/3
f 28/4/3 26/4/3 27/4/3
f 31/3/3 30/3/3 29/3/3
f 32/3/3 30/3/3 31/3/3
f 34/3/3 30/3/3 32/3/3
f 35/3/3 34/3/3 33/3/3
f 36/3/3 30/3/3 34/3/3
f 36/3/3 34/3/3 35/3/3
f 39/3/3 38/3/3 37/3/3
f 40/3/3 38/3/3 39/3/3
f 41/3/4 42/3/4 43/3/4
f 43/3/4 42/3/4 44/3/4
f 45/4/4 46/4/4 47/4/4
f 47/4/4 46/4/4 48/4/4
f 51/4/5 50/4/5 49/4/5
f 52/4/5 50/4/5 51/4/5
f 55/3/5 54/3/5 53/3/5
f 56/3/5 54/3/5 55/3/5
f 57/4/6 58/4/6 59/4/6
f 59/4/6 58/4/6 60/4/6
f 60/4/6 58/4/6 61/4/6
f 61/4/6 58/4/6 62/4/6
f 60/4/6 61/4/6 63/4/6
f 63/4/6 61/4/6 64/4/6
f 57/4/6 59/4/6 65/4/6
f 62/4/6 58/4/6 66/4/6
f 57/4/6 65/4/6 67/4/6
f 65/4/6 66/4/6 67/4/6
f 66/4/6 58/4/6 68/4/6
f 67/4/6 66/4/6 68/4/6
f 69/3/6 70/3/6 71/3/6
f 71/3/6 70/3/6 72/3/6
f 72/3/6 70/3/6 73/3/6
f 73/3/6 70/3/6 74/3/6
f 74/3/6 70/3/6 75/3/6
f 75/3/6 70/3/6 76/3/6
f 76/3/6 70/3/6 77/3/6
f 77/3/6 70/3/6 78/3/6
f 71/2/6 72/2/6 79/2/6
f 72/3/6 73/3/6 79/3/6
f 73/2/6 74/2/6 80/2/6
f 79/3/6 73/3/6 80/3/6
f 74/3/6 75/3/6 81/3/6
f 80/2/6 74/2/6 81/2/6
f 75/2/6 76/2/6 82/2/6
f 81/3/6 75/3/6 82/3/6
f 76/3/6 77/3/6 83/3/6
f 82/2/6 76/2/6 83/2/6
f 77/2/6 78/2/6 84/2/6
f 83/3/6 77/3/6 84/3/6
f 78/3/6 70/3/6 85/3/6
f 84/2/6 78/2/6 85/2/6
f 85/3/6 70/3/6 86/3/6
f 82/3/6 83/3/6 87/3/6
f 79/2/6 80/2/6 87/2/6
f 80/2/6 81/2/6 87/2/6
f 81/2/6 82/2/6 87/2/6
f 83/2/6 84/2/6 88/2/6
f 87/3/6 83/3/6 88/3/6
f 84/3/6 85/3/6 89/3/6
f 88/2/6 84/2/6 89/2/6
f 85/2/6 86/2/6 90/2/6
f 89/3/6 85/3/6 90/3/6
f 86/3/6 70/3/6 91/3/6
f 90/2/6 86/2/6 91/2/6
f 79/2/6 87/2/6 92/2/6
f 87/2/6 88/2/6 92/2/6
f 88/3/6 89/3/6 93/3/6
f 92/2/6 88/2/6 93/2/6
f 89/2/6 90/2/6 94/2/6
f 93/3/6 89/3/6 94/3/6
f 90/3/6 91/3/6 95/3/6
f 94/2/6 90/2/6 95/2/6
f 91/3/6 70/3/6 96/3/6
f 95/3/6 91/3/6 96/3/6
f 92/3/6 93/3/6 97/3/6
f 79/2/6 92/2/6 97/2/6
f 93/2/6 94/2/6 98/2/6
f 97/3/6 93/3/6 98/3/6
f 94/3/6 95/3/6 99/3/6
f 98/2/6 94/2/6 99/2/6
f 95/2/6 96/2/6 100/2/6
f 99/3/6 95/3/6 100/3/6
f 96/3/6 70/3/6 101/3/6
f 100/2/6 96/2/6 101/2/6
f 97/2/6 98/2/6 102/2/6
f 99/2/6 100/2/6 102/2/6
f 100/3/6 101/3/6 102/3/6
f 98/2/6 99/2/6 102/2/6
f 101/3/6 70/3/6 103/3/6
f 102/3/6 101/3/6 103/3/6
f 97/2/6 102/2/6 104/2/6
f 102/2/6 103/2/6 104/2/6
f 103/3/6 70/3/6 105/3/6
f 104/2/6 103/2/6 105/2/6
f 97/2/6 104/2/6 106/2/6
f 104/3/6 105/3/6 106/3/6
f 105/3/6 70/3/6 107/3/6
f 106/3/6 105/3/6 107/3/6
f 69/3/6 71/3/6 108/3/6
f 97/2/6 106/2/6 108/2/6
f 106/2/6 107/2/6 108/2/6
f 71/2/6 79/2/6 108/2/6
f 79/2/6 97/2/6 108/2/6
f 107/3/6 70/3/6 109/3/6
f 108/2/6 107/2/6 109/2/6
f 69/3/6 108/3/6 110/3/6
f 108/3/6 109/3/6 110/3/6
f 109/3/6 70/3/6 111/3/6
f 110/3/6 109/3/6 111/3/6
