# MagicaVoxel @ Ephtracy

# group
o 

# material
mtllib GreenChestTop.mtl
usemtl palette

# normals
vn -1 0 0
vn 1 0 0
vn 0 0 1
vn 0 0 -1
vn 0 -1 0
vn 0 1 0

# texcoords
vt 0.181641 0.5
vt 0.650391 0.5
vt 0.978516 0.5
vt 0.994141 0.5

# verts
v -1.1 0.2 -0.2
v -1.1 0.2 -0.3
v -1.1 1.6 -0.2
v -1.1 1.6 -0.3
v -1 0.3 -0.3
v -1 0.3 -0.4
v -1 1.5 -0.3
v -1 1.5 -0.4
v -0.9 0.4 -0.4
v -0.9 0.4 -0.5
v -0.9 1.4 -0.4
v -0.9 1.4 -0.5
v -0.8 0.5 -0.5
v -0.8 0.5 -0.6
v -0.8 1.3 -0.5
v -0.8 1.3 -0.6
v -0.7 0.6 -0.6
v -0.7 0.6 -0.7
v -0.7 1.2 -0.6
v -0.7 1.2 -0.7
v -0.6 0.7 -0.7
v -0.6 0.7 -0.8
v -0.6 1.1 -0.7
v -0.6 1.1 -0.8
v 0.7 0.7 -0.7
v 0.7 0.7 -0.8
v 0.7 1.1 -0.7
v 0.7 1.1 -0.8
v 0.8 0.6 -0.6
v 0.8 0.6 -0.7
v 0.8 1.2 -0.6
v 0.8 1.2 -0.7
v 0.9 0.5 -0.5
v 0.9 0.5 -0.6
v 0.9 1.3 -0.5
v 0.9 1.3 -0.6
v 1 0.4 -0.4
v 1 0.4 -0.5
v 1 1.4 -0.4
v 1 1.4 -0.5
v 1.1 0.3 -0.3
v 1.1 0.3 -0.4
v 1.1 1.5 -0.3
v 1.1 1.5 -0.4
v 1.2 0.2 -0.2
v 1.2 0.2 -0.3
v 1.2 1.6 -0.2
v 1.2 1.6 -0.3
v -1.1 0.2 -0.2
v -1.1 1.6 -0.2
v -1 0.3 -0.2
v -1 1.5 -0.2
v 1.1 0.3 -0.2
v 1.1 1.5 -0.2
v 1.2 0.2 -0.2
v 1.2 1.6 -0.2
v -1.1 0.2 -0.3
v -1.1 1.6 -0.3
v -1 0.3 -0.3
v -1 1.5 -0.3
v -0.1 0.3 -0.3
v -0.1 1.5 -0.3
v 0 0.3 -0.3
v 0 1.5 -0.3
v 0.1 0.3 -0.3
v 0.1 1.5 -0.3
v 0.2 0.3 -0.3
v 0.2 1.5 -0.3
v 1.1 0.3 -0.3
v 1.1 1.5 -0.3
v 1.2 0.2 -0.3
v 1.2 1.6 -0.3
v -1 0.3 -0.4
v -1 1.5 -0.4
v -0.9 0.4 -0.4
v -0.9 1.4 -0.4
v -0.1 0.3 -0.4
v -0.1 0.4 -0.4
v -0.1 1.4 -0.4
v -0.1 1.5 -0.4
v 0 0.3 -0.4
v 0 0.4 -0.4
v 0 1.4 -0.4
v 0 1.5 -0.4
v 0.1 0.3 -0.4
v 0.1 0.4 -0.4
v 0.1 1.4 -0.4
v 0.1 1.5 -0.4
v 0.2 0.3 -0.4
v 0.2 0.4 -0.4
v 0.2 1.4 -0.4
v 0.2 1.5 -0.4
v 1 0.4 -0.4
v 1 1.4 -0.4
v 1.1 0.3 -0.4
v 1.1 1.5 -0.4
v -0.9 0.4 -0.5
v -0.9 1.4 -0.5
v -0.8 0.5 -0.5
v -0.8 1.3 -0.5
v -0.1 0.4 -0.5
v -0.1 0.5 -0.5
v -0.1 1.3 -0.5
v -0.1 1.4 -0.5
v 0 0.4 -0.5
v 0 0.5 -0.5
v 0 1.3 -0.5
v 0 1.4 -0.5
v 0.1 0.4 -0.5
v 0.1 0.5 -0.5
v 0.1 1.3 -0.5
v 0.1 1.4 -0.5
v 0.2 0.4 -0.5
v 0.2 0.5 -0.5
v 0.2 1.3 -0.5
v 0.2 1.4 -0.5
v 0.9 0.5 -0.5
v 0.9 1.3 -0.5
v 1 0.4 -0.5
v 1 1.4 -0.5
v -0.8 0.5 -0.6
v -0.8 1.3 -0.6
v -0.7 0.6 -0.6
v -0.7 1.2 -0.6
v -0.1 0.5 -0.6
v -0.1 0.6 -0.6
v -0.1 1.2 -0.6
v -0.1 1.3 -0.6
v 0 0.5 -0.6
v 0 0.6 -0.6
v 0 1.2 -0.6
v 0 1.3 -0.6
v 0.1 0.5 -0.6
v 0.1 0.6 -0.6
v 0.1 1.2 -0.6
v 0.1 1.3 -0.6
v 0.2 0.5 -0.6
v 0.2 0.6 -0.6
v 0.2 1.2 -0.6
v 0.2 1.3 -0.6
v 0.8 0.6 -0.6
v 0.8 1.2 -0.6
v 0.9 0.5 -0.6
v 0.9 1.3 -0.6
v -0.7 0.6 -0.7
v -0.7 1.2 -0.7
v -0.6 0.7 -0.7
v -0.6 1.1 -0.7
v -0.1 0.6 -0.7
v -0.1 0.7 -0.7
v -0.1 1.1 -0.7
v -0.1 1.2 -0.7
v 0 0.6 -0.7
v 0 0.7 -0.7
v 0 1.1 -0.7
v 0 1.2 -0.7
v 0.1 0.6 -0.7
v 0.1 0.7 -0.7
v 0.1 1.1 -0.7
v 0.1 1.2 -0.7
v 0.2 0.6 -0.7
v 0.2 0.7 -0.7
v 0.2 1.1 -0.7
v 0.2 1.2 -0.7
v 0.7 0.7 -0.7
v 0.7 1.1 -0.7
v 0.8 0.6 -0.7
v 0.8 1.2 -0.7
v -0.6 0.7 -0.8
v -0.6 1.1 -0.8
v -0.5 0.8 -0.8
v -0.5 1 -0.8
v -0.4 0.8 -0.8
v -0.4 1 -0.8
v -0.3 0.9 -0.8
v -0.3 1 -0.8
v -0.2 0.9 -0.8
v -0.2 1 -0.8
v -0.1 0.7 -0.8
v -0.1 1.1 -0.8
v 0 0.7 -0.8
v 0 1.1 -0.8
v 0.1 0.7 -0.8
v 0.1 1.1 -0.8
v 0.2 0.7 -0.8
v 0.2 1.1 -0.8
v 0.3 0.8 -0.8
v 0.3 0.9 -0.8
v 0.4 0.8 -0.8
v 0.4 0.9 -0.8
v 0.4 1 -0.8
v 0.5 0.8 -0.8
v 0.5 0.9 -0.8
v 0.6 0.8 -0.8
v 0.6 1 -0.8
v 0.7 0.7 -0.8
v 0.7 1.1 -0.8
v -1.1 0.2 -0.2
v 1.2 0.2 -0.2
v -1.1 0.2 -0.3
v 1.2 0.2 -0.3
v -1 0.3 -0.3
v -0.1 0.3 -0.3
v 0 0.3 -0.3
v 0.1 0.3 -0.3
v 0.2 0.3 -0.3
v 1.1 0.3 -0.3
v -1 0.3 -0.4
v -0.1 0.3 -0.4
v 0 0.3 -0.4
v 0.1 0.3 -0.4
v 0.2 0.3 -0.4
v 1.1 0.3 -0.4
v -0.9 0.4 -0.4
v -0.1 0.4 -0.4
v 0 0.4 -0.4
v 0.1 0.4 -0.4
v 0.2 0.4 -0.4
v 1 0.4 -0.4
v -0.9 0.4 -0.5
v -0.1 0.4 -0.5
v 0 0.4 -0.5
v 0.1 0.4 -0.5
v 0.2 0.4 -0.5
v 1 0.4 -0.5
v -0.8 0.5 -0.5
v -0.1 0.5 -0.5
v 0 0.5 -0.5
v 0.1 0.5 -0.5
v 0.2 0.5 -0.5
v 0.9 0.5 -0.5
v -0.8 0.5 -0.6
v -0.1 0.5 -0.6
v 0 0.5 -0.6
v 0.1 0.5 -0.6
v 0.2 0.5 -0.6
v 0.9 0.5 -0.6
v -0.7 0.6 -0.6
v -0.1 0.6 -0.6
v 0 0.6 -0.6
v 0.1 0.6 -0.6
v 0.2 0.6 -0.6
v 0.8 0.6 -0.6
v -0.7 0.6 -0.7
v -0.1 0.6 -0.7
v 0 0.6 -0.7
v 0.1 0.6 -0.7
v 0.2 0.6 -0.7
v 0.8 0.6 -0.7
v -0.6 0.7 -0.7
v -0.1 0.7 -0.7
v 0 0.7 -0.7
v 0.1 0.7 -0.7
v 0.2 0.7 -0.7
v 0.7 0.7 -0.7
v -0.6 0.7 -0.8
v -0.1 0.7 -0.8
v 0 0.7 -0.8
v 0.1 0.7 -0.8
v 0.2 0.7 -0.8
v 0.7 0.7 -0.8
v -0.6 1.1 -0.7
v -0.1 1.1 -0.7
v 0 1.1 -0.7
v 0.1 1.1 -0.7
v 0.2 1.1 -0.7
v 0.7 1.1 -0.7
v -0.6 1.1 -0.8
v -0.1 1.1 -0.8
v 0 1.1 -0.8
v 0.1 1.1 -0.8
v 0.2 1.1 -0.8
v 0.7 1.1 -0.8
v -0.7 1.2 -0.6
v -0.1 1.2 -0.6
v 0 1.2 -0.6
v 0.1 1.2 -0.6
v 0.2 1.2 -0.6
v 0.8 1.2 -0.6
v -0.7 1.2 -0.7
v -0.1 1.2 -0.7
v 0 1.2 -0.7
v 0.1 1.2 -0.7
v 0.2 1.2 -0.7
v 0.8 1.2 -0.7
v -0.8 1.3 -0.5
v -0.1 1.3 -0.5
v 0 1.3 -0.5
v 0.1 1.3 -0.5
v 0.2 1.3 -0.5
v 0.9 1.3 -0.5
v -0.8 1.3 -0.6
v -0.1 1.3 -0.6
v 0 1.3 -0.6
v 0.1 1.3 -0.6
v 0.2 1.3 -0.6
v 0.9 1.3 -0.6
v -0.9 1.4 -0.4
v -0.1 1.4 -0.4
v 0 1.4 -0.4
v 0.1 1.4 -0.4
v 0.2 1.4 -0.4
v 1 1.4 -0.4
v -0.9 1.4 -0.5
v -0.1 1.4 -0.5
v 0 1.4 -0.5
v 0.1 1.4 -0.5
v 0.2 1.4 -0.5
v 1 1.4 -0.5
v -1 1.5 -0.3
v -0.1 1.5 -0.3
v 0 1.5 -0.3
v 0.1 1.5 -0.3
v 0.2 1.5 -0.3
v 1.1 1.5 -0.3
v -1 1.5 -0.4
v -0.1 1.5 -0.4
v 0 1.5 -0.4
v 0.1 1.5 -0.4
v 0.2 1.5 -0.4
v 1.1 1.5 -0.4
v -1.1 1.6 -0.2
v 1.2 1.6 -0.2
v -1.1 1.6 -0.3
v 1.2 1.6 -0.3

# faces
f 3/3/1 2/3/1 1/3/1
f 4/3/1 2/3/1 3/3/1
f 7/2/1 6/2/1 5/2/1
f 8/2/1 6/2/1 7/2/1
f 11/2/1 10/2/1 9/2/1
f 12/2/1 10/2/1 11/2/1
f 15/2/1 14/2/1 13/2/1
f 16/2/1 14/2/1 15/2/1
f 19/2/1 18/2/1 17/2/1
f 20/2/1 18/2/1 19/2/1
f 23/2/1 22/2/1 21/2/1
f 24/2/1 22/2/1 23/2/1
f 25/2/2 26/2/2 27/2/2
f 27/2/2 26/2/2 28/2/2
f 29/2/2 30/2/2 31/2/2
f 31/2/2 30/2/2 32/2/2
f 33/2/2 34/2/2 35/2/2
f 35/2/2 34/2/2 36/2/2
f 37/2/2 38/2/2 39/2/2
f 39/2/2 38/2/2 40/2/2
f 41/2/2 42/2/2 43/2/2
f 43/2/2 42/2/2 44/2/2
f 45/3/2 46/3/2 47/3/2
f 47/3/2 46/3/2 48/3/2
f 51/3/3 50/3/3 49/3/3
f 52/3/3 50/3/3 51/3/3
f 53/3/3 51/3/3 49/3/3
f 53/2/3 52/2/3 51/2/3
f 54/3/3 50/3/3 52/3/3
f 54/2/3 52/2/3 53/2/3
f 55/3/3 53/3/3 49/3/3
f 55/3/3 54/3/3 53/3/3
f 56/3/3 50/3/3 54/3/3
f 56/3/3 54/3/3 55/3/3
f 57/3/4 58/3/4 59/3/4
f 59/3/4 58/3/4 60/3/4
f 57/3/4 59/3/4 61/3/4
f 60/3/4 58/3/4 62/3/4
f 57/3/4 61/3/4 63/3/4
f 62/3/4 58/3/4 64/3/4
f 57/3/4 63/3/4 65/3/4
f 64/3/4 58/3/4 66/3/4
f 57/3/4 65/3/4 67/3/4
f 66/3/4 58/3/4 68/3/4
f 57/3/4 67/3/4 69/3/4
f 68/3/4 58/3/4 70/3/4
f 57/3/4 69/3/4 71/3/4
f 69/3/4 70/3/4 71/3/4
f 70/3/4 58/3/4 72/3/4
f 71/3/4 70/3/4 72/3/4
f 73/2/4 74/2/4 75/2/4
f 75/2/4 74/2/4 76/2/4
f 73/2/4 75/2/4 77/2/4
f 77/2/4 75/2/4 78/2/4
f 76/2/4 74/2/4 79/2/4
f 79/2/4 74/2/4 80/2/4
f 77/4/4 78/4/4 81/4/4
f 81/4/4 78/4/4 82/4/4
f 79/4/4 80/4/4 83/4/4
f 83/4/4 80/4/4 84/4/4
f 81/3/4 82/3/4 85/3/4
f 85/3/4 82/3/4 86/3/4
f 83/3/4 84/3/4 87/3/4
f 87/3/4 84/3/4 88/3/4
f 85/4/4 86/4/4 89/4/4
f 89/4/4 86/4/4 90/4/4
f 87/4/4 88/4/4 91/4/4
f 91/4/4 88/4/4 92/4/4
f 89/2/4 90/2/4 93/2/4
f 91/2/4 92/2/4 94/2/4
f 89/2/4 93/2/4 95/2/4
f 93/2/4 94/2/4 95/2/4
f 94/2/4 92/2/4 96/2/4
f 95/2/4 94/2/4 96/2/4
f 97/2/4 98/2/4 99/2/4
f 99/2/4 98/2/4 100/2/4
f 97/2/4 99/2/4 101/2/4
f 101/2/4 99/2/4 102/2/4
f 100/2/4 98/2/4 103/2/4
f 103/2/4 98/2/4 104/2/4
f 101/4/4 102/4/4 105/4/4
f 105/4/4 102/4/4 106/4/4
f 103/4/4 104/4/4 107/4/4
f 107/4/4 104/4/4 108/4/4
f 105/3/4 106/3/4 109/3/4
f 109/3/4 106/3/4 110/3/4
f 107/3/4 108/3/4 111/3/4
f 111/3/4 108/3/4 112/3/4
f 109/4/4 110/4/4 113/4/4
f 113/4/4 110/4/4 114/4/4
f 111/4/4 112/4/4 115/4/4
f 115/4/4 112/4/4 116/4/4
f 113/2/4 114/2/4 117/2/4
f 115/2/4 116/2/4 118/2/4
f 113/2/4 117/2/4 119/2/4
f 117/2/4 118/2/4 119/2/4
f 118/2/4 116/2/4 120/2/4
f 119/2/4 118/2/4 120/2/4
f 121/2/4 122/2/4 123/2/4
f 123/2/4 122/2/4 124/2/4
f 121/2/4 123/2/4 125/2/4
f 125/2/4 123/2/4 126/2/4
f 124/2/4 122/2/4 127/2/4
f 127/2/4 122/2/4 128/2/4
f 125/4/4 126/4/4 129/4/4
f 129/4/4 126/4/4 130/4/4
f 127/4/4 128/4/4 131/4/4
f 131/4/4 128/4/4 132/4/4
f 129/3/4 130/3/4 133/3/4
f 133/3/4 130/3/4 134/3/4
f 131/3/4 132/3/4 135/3/4
f 135/3/4 132/3/4 136/3/4
f 133/4/4 134/4/4 137/4/4
f 137/4/4 134/4/4 138/4/4
f 135/4/4 136/4/4 139/4/4
f 139/4/4 136/4/4 140/4/4
f 137/2/4 138/2/4 141/2/4
f 139/2/4 140/2/4 142/2/4
f 137/2/4 141/2/4 143/2/4
f 141/2/4 142/2/4 143/2/4
f 142/2/4 140/2/4 144/2/4
f 143/2/4 142/2/4 144/2/4
f 145/2/4 146/2/4 147/2/4
f 147/2/4 146/2/4 148/2/4
f 145/2/4 147/2/4 149/2/4
f 149/2/4 147/2/4 150/2/4
f 148/2/4 146/2/4 151/2/4
f 151/2/4 146/2/4 152/2/4
f 149/4/4 150/4/4 153/4/4
f 153/4/4 150/4/4 154/4/4
f 151/4/4 152/4/4 155/4/4
f 155/4/4 152/4/4 156/4/4
f 153/3/4 154/3/4 157/3/4
f 157/3/4 154/3/4 158/3/4
f 155/3/4 156/3/4 159/3/4
f 159/3/4 156/3/4 160/3/4
f 157/4/4 158/4/4 161/4/4
f 161/4/4 158/4/4 162/4/4
f 159/4/4 160/4/4 163/4/4
f 163/4/4 160/4/4 164/4/4
f 161/2/4 162/2/4 165/2/4
f 163/2/4 164/2/4 166/2/4
f 161/2/4 165/2/4 167/2/4
f 165/2/4 166/2/4 167/2/4
f 166/2/4 164/2/4 168/2/4
f 167/2/4 166/2/4 168/2/4
f 169/2/4 170/2/4 171/2/4
f 171/2/4 170/2/4 172/2/4
f 169/2/4 171/2/4 173/2/4
f 171/1/4 172/1/4 173/1/4
f 172/2/4 170/2/4 174/2/4
f 173/1/4 172/1/4 174/1/4
f 173/2/4 174/2/4 175/2/4
f 174/2/4 170/2/4 176/2/4
f 175/2/4 174/2/4 176/2/4
f 173/2/4 175/2/4 177/2/4
f 175/1/4 176/1/4 177/1/4
f 176/2/4 170/2/4 178/2/4
f 177/1/4 176/1/4 178/1/4
f 169/2/4 173/2/4 179/2/4
f 173/2/4 177/2/4 179/2/4
f 177/2/4 178/2/4 179/2/4
f 178/2/4 170/2/4 180/2/4
f 179/2/4 178/2/4 180/2/4
f 179/4/4 180/4/4 181/4/4
f 181/4/4 180/4/4 182/4/4
f 181/3/4 182/3/4 183/3/4
f 183/3/4 182/3/4 184/3/4
f 183/4/4 184/4/4 185/4/4
f 185/4/4 184/4/4 186/4/4
f 185/2/4 186/2/4 187/2/4
f 187/2/4 186/2/4 188/2/4
f 185/2/4 187/2/4 189/2/4
f 187/1/4 188/1/4 189/1/4
f 188/2/4 186/2/4 190/2/4
f 189/1/4 188/1/4 190/1/4
f 190/2/4 186/2/4 191/2/4
f 185/2/4 189/2/4 192/2/4
f 189/2/4 190/2/4 192/2/4
f 190/1/4 191/1/4 193/1/4
f 192/2/4 190/2/4 193/2/4
f 185/2/4 192/2/4 194/2/4
f 192/1/4 193/1/4 194/1/4
f 191/2/4 186/2/4 195/2/4
f 194/1/4 193/1/4 195/1/4
f 193/1/4 191/1/4 195/1/4
f 185/2/4 194/2/4 196/2/4
f 194/2/4 195/2/4 196/2/4
f 195/2/4 186/2/4 197/2/4
f 196/2/4 195/2/4 197/2/4
f 200/3/5 199/3/5 198/3/5
f 201/3/5 199/3/5 200/3/5
f 208/2/5 203/2/5 202/2/5
f 209/4/5 204/4/5 203/4/5
f 209/2/5 203/2/5 208/2/5
f 210/3/5 205/3/5 204/3/5
f 210/4/5 204/4/5 209/4/5
f 211/4/5 206/4/5 205/4/5
f 211/3/5 205/3/5 210/3/5
f 212/2/5 207/2/5 206/2/5
f 212/4/5 206/4/5 211/4/5
f 213/2/5 207/2/5 212/2/5
f 220/2/5 215/2/5 214/2/5
f 221/4/5 216/4/5 215/4/5
f 221/2/5 215/2/5 220/2/5
f 222/3/5 217/3/5 216/3/5
f 222/4/5 216/4/5 221/4/5
f 223/4/5 218/4/5 217/4/5
f 223/3/5 217/3/5 222/3/5
f 224/2/5 219/2/5 218/2/5
f 224/4/5 218/4/5 223/4/5
f 225/2/5 219/2/5 224/2/5
f 232/2/5 227/2/5 226/2/5
f 233/4/5 228/4/5 227/4/5
f 233/2/5 227/2/5 232/2/5
f 234/3/5 229/3/5 228/3/5
f 234/4/5 228/4/5 233/4/5
f 235/4/5 230/4/5 229/4/5
f 235/3/5 229/3/5 234/3/5
f 236/2/5 231/2/5 230/2/5
f 236/4/5 230/4/5 235/4/5
f 237/2/5 231/2/5 236/2/5
f 244/2/5 239/2/5 238/2/5
f 245/4/5 240/4/5 239/4/5
f 245/2/5 239/2/5 244/2/5
f 246/3/5 241/3/5 240/3/5
f 246/4/5 240/4/5 245/4/5
f 247/4/5 242/4/5 241/4/5
f 247/3/5 241/3/5 246/3/5
f 248/2/5 243/2/5 242/2/5
f 248/4/5 242/4/5 247/4/5
f 249/2/5 243/2/5 248/2/5
f 256/2/5 251/2/5 250/2/5
f 257/4/5 252/4/5 251/4/5
f 257/2/5 251/2/5 256/2/5
f 258/3/5 253/3/5 252/3/5
f 258/4/5 252/4/5 257/4/5
f 259/4/5 254/4/5 253/4/5
f 259/3/5 253/3/5 258/3/5
f 260/2/5 255/2/5 254/2/5
f 260/4/5 254/4/5 259/4/5
f 261/2/5 255/2/5 260/2/5
f 262/2/6 263/2/6 268/2/6
f 263/4/6 264/4/6 269/4/6
f 268/2/6 263/2/6 269/2/6
f 264/3/6 265/3/6 270/3/6
f 269/4/6 264/4/6 270/4/6
f 265/4/6 266/4/6 271/4/6
f 270/3/6 265/3/6 271/3/6
f 266/2/6 267/2/6 272/2/6
f 271/4/6 266/4/6 272/4/6
f 272/2/6 267/2/6 273/2/6
f 274/2/6 275/2/6 280/2/6
f 275/4/6 276/4/6 281/4/6
f 280/2/6 275/2/6 281/2/6
f 276/3/6 277/3/6 282/3/6
f 281/4/6 276/4/6 282/4/6
f 277/4/6 278/4/6 283/4/6
f 282/3/6 277/3/6 283/3/6
f 278/2/6 279/2/6 284/2/6
f 283/4/6 278/4/6 284/4/6
f 284/2/6 279/2/6 285/2/6
f 286/2/6 287/2/6 292/2/6
f 287/4/6 288/4/6 293/4/6
f 292/2/6 287/2/6 293/2/6
f 288/3/6 289/3/6 294/3/6
f 293/4/6 288/4/6 294/4/6
f 289/4/6 290/4/6 295/4/6
f 294/3/6 289/3/6 295/3/6
f 290/2/6 291/2/6 296/2/6
f 295/4/6 290/4/6 296/4/6
f 296/2/6 291/2/6 297/2/6
f 298/2/6 299/2/6 304/2/6
f 299/4/6 300/4/6 305/4/6
f 304/2/6 299/2/6 305/2/6
f 300/3/6 301/3/6 306/3/6
f 305/4/6 300/4/6 306/4/6
f 301/4/6 302/4/6 307/4/6
f 306/3/6 301/3/6 307/3/6
f 302/2/6 303/2/6 308/2/6
f 307/4/6 302/4/6 308/4/6
f 308/2/6 303/2/6 309/2/6
f 310/2/6 311/2/6 316/2/6
f 311/4/6 312/4/6 317/4/6
f 316/2/6 311/2/6 317/2/6
f 312/3/6 313/3/6 318/3/6
f 317/4/6 312/4/6 318/4/6
f 313/4/6 314/4/6 319/4/6
f 318/3/6 313/3/6 319/3/6
f 314/2/6 315/2/6 320/2/6
f 319/4/6 314/4/6 320/4/6
f 320/2/6 315/2/6 321/2/6
f 322/3/6 323/3/6 324/3/6
f 324/3/6 323/3/6 325/3/6
